<svg width="24" height="24" viewBox="0 0 24 24" fill="none" xmlns="http://www.w3.org/2000/svg">
<path d="M13.5469 18.1787H10.7344C10.4756 18.1787 10.2656 18.3892 10.2656 18.6475C10.2656 18.9062 10.4756 19.1162 10.7344 19.1162H13.5469C13.8052 19.1162 14.0156 18.9062 14.0156 18.6475C14.0156 18.3892 13.8051 18.1787 13.5469 18.1787Z" fill="#D90166"/>
<path d="M21.504 9.95522L20.9928 5.34061C20.9305 4.7948 20.2908 4.5607 19.6967 4.42402C19.691 4.44272 19.6832 4.46081 19.6737 4.47773C19.0138 3.28055 17.9401 2.18166 16.6328 1.37189C15.1838 0.474422 13.5818 0 12 0C10.4174 0 8.81471 0.474844 7.36519 1.3732C6.0819 2.16853 5.02341 3.2422 4.36116 4.41403C3.71513 4.55578 3.07088 4.7828 3.00704 5.34216L2.49615 9.95367C2.42495 10.5775 2.6889 11.5639 2.95965 12.279C3.37041 13.364 3.81394 13.9727 4.27791 14.0884C4.29619 14.093 4.9253 14.1724 4.9253 14.1724L5.17098 17.922C5.17688 19.4723 6.04069 21.0091 7.60482 22.2509C8.96391 23.3298 10.648 24 12 24C13.352 24 15.0361 23.3298 16.3951 22.2509C17.9579 21.0103 18.8215 19.4753 18.829 17.9264L19.1439 14.1637C19.1439 14.1637 19.7038 14.093 19.7221 14.0884C20.1861 13.9727 20.6296 13.3639 21.0404 12.279C21.3111 11.5639 21.575 10.5775 21.504 9.95522ZM11.7375 0.942469C11.7375 0.942469 12.8234 2.75381 12.8243 2.75536C12.9522 2.96878 13.2461 3.04898 13.4674 2.91637C13.6894 2.78325 13.7615 2.49534 13.6284 2.2733L12.8591 0.990141C15.2071 1.27181 17.241 2.6663 18.392 4.21584C16.5333 4.00833 14.2137 4.01714 14.0971 4.0177C14.0365 4.01803 12.5564 4.63439 12.5088 4.68891C12.3787 4.83787 12.2014 4.91991 12.0097 4.91991C11.8179 4.91991 11.6407 4.83787 11.5106 4.68891C11.4653 4.63702 10.0609 4.01798 9.99676 4.0177C9.98499 4.01766 7.30866 4.02914 5.60523 4.21955C6.8521 2.53828 9.13754 1.03809 11.7375 0.942469ZM3.92869 5.53688C4.07584 5.4457 4.70152 5.17884 7.10223 5.03667C8.35566 4.96247 9.55444 4.95548 9.89574 4.95511L10.8816 5.38809C11.1822 5.68767 11.5873 5.85741 12.0096 5.85745C12.4299 5.85745 12.8333 5.68922 13.1334 5.39227L14.1925 4.95511C14.5227 4.95539 15.7042 4.96205 16.943 5.03634C19.3108 5.17823 19.9267 5.44458 20.071 5.53514L20.1755 6.4777C18.1405 6.06267 14.4579 6.07603 14.2821 6.07669C14.2215 6.07702 12.6323 6.73842 12.5846 6.79294C12.4351 6.96417 12.2311 7.05848 12.0104 7.05848C11.7896 7.05848 11.5856 6.96417 11.4361 6.79294C11.3908 6.74105 9.88383 6.07702 9.81971 6.07669C9.80537 6.07664 5.71754 6.09628 3.82398 6.48122L3.92869 5.53688ZM17.8931 17.8672C17.8921 17.8801 17.8915 17.8932 17.8915 17.9062C17.8915 20.7028 14.2727 23.0625 12 23.0625C9.72718 23.0625 6.10843 20.7028 6.10843 17.9062C6.10843 17.896 6.1081 17.8858 6.10744 17.8756L5.87255 14.2902L8.89219 14.6658C9.08912 14.7489 9.81994 15.1673 10.4392 15.5394C10.885 15.9814 11.6463 16.0308 11.9626 16.0308C12.2776 16.0308 13.0333 15.9819 13.4799 15.5455C13.8074 15.3629 15.0159 14.7105 15.1163 14.6647L18.1932 14.282L17.8931 17.8672ZM20.2006 11.8471C19.8962 12.6848 19.6014 13.0889 19.4863 13.1764C19.4863 13.1764 14.9053 13.7474 14.887 13.752C14.8224 13.7681 12.8723 14.8217 12.8369 14.8622C12.7391 14.9742 12.3994 15.0932 11.9627 15.0932C11.5261 15.0932 11.1864 14.9742 11.0886 14.8622C11.0566 14.8256 9.31369 13.802 9.11302 13.752C9.09474 13.7474 4.51369 13.1764 4.51369 13.1764C4.39852 13.0889 4.10377 12.6848 3.79932 11.8471C3.54137 11.1374 3.38851 10.4025 3.42774 10.0584L3.71494 7.46592C5.36087 7.03791 9.07346 7.01475 9.71883 7.01405L10.8067 7.4918C11.1265 7.81345 11.5593 7.99589 12.0104 7.99589C12.4596 7.99589 12.8905 7.81505 13.21 7.49592L14.3776 7.014C15.0008 7.01461 18.6547 7.03678 20.2846 7.46264L20.5724 10.0599C20.6115 10.4025 20.4586 11.1374 20.2006 11.8471Z" fill="#D90166"/>
<path d="M13.9886 11.9828L13.5581 8.86566C13.5228 8.6092 13.286 8.42986 13.0297 8.46544C12.7732 8.50083 12.5941 8.73745 12.6295 8.9939C12.6295 8.9939 13.0595 12.1083 13.06 12.1111C13.0937 12.3553 13.3411 12.5457 13.5884 12.5113C13.8449 12.4759 14.024 12.2393 13.9886 11.9828Z" fill="#D90166"/>
<path d="M10.8287 8.46543C10.5724 8.4299 10.3356 8.60915 10.3002 8.86565L9.8697 11.9828C9.83427 12.2393 10.0135 12.4759 10.2699 12.5113C10.5234 12.5465 10.7636 12.3633 10.7984 12.1111C10.7984 12.111 11.2289 8.9939 11.2289 8.9939C11.2643 8.73744 11.0851 8.50086 10.8287 8.46543Z" fill="#D90166"/>
</svg>
