<svg width="28" height="28" viewBox="0 0 28 28" fill="none" xmlns="http://www.w3.org/2000/svg">
<path d="M9.33342 12.8335C9.10268 12.8335 8.87711 12.9019 8.68526 13.0301C8.4934 13.1583 8.34386 13.3405 8.25556 13.5537C8.16726 13.7669 8.14416 14.0015 8.18917 14.2278C8.23419 14.4541 8.3453 14.662 8.50846 14.8251C8.67163 14.9883 8.87951 15.0994 9.10582 15.1444C9.33213 15.1894 9.56671 15.1663 9.77989 15.078C9.99307 14.9897 10.1753 14.8402 10.3035 14.6483C10.4317 14.4565 10.5001 14.2309 10.5001 14.0002C10.5001 13.6907 10.3772 13.394 10.1584 13.1752C9.93959 12.9564 9.64284 12.8335 9.33342 12.8335ZM14.0001 12.8335C13.7693 12.8335 13.5438 12.9019 13.3519 13.0301C13.1601 13.1583 13.0105 13.3405 12.9222 13.5537C12.8339 13.7669 12.8108 14.0015 12.8558 14.2278C12.9009 14.4541 13.012 14.662 13.1751 14.8251C13.3383 14.9883 13.5462 15.0994 13.7725 15.1444C13.9988 15.1894 14.2334 15.1663 14.4466 15.078C14.6597 14.9897 14.8419 14.8402 14.9701 14.6483C15.0983 14.4565 15.1668 14.2309 15.1668 14.0002C15.1668 13.6907 15.0438 13.394 14.825 13.1752C14.6063 12.9564 14.3095 12.8335 14.0001 12.8335ZM18.6668 12.8335C18.436 12.8335 18.2104 12.9019 18.0186 13.0301C17.8267 13.1583 17.6772 13.3405 17.5889 13.5537C17.5006 13.7669 17.4775 14.0015 17.5225 14.2278C17.5675 14.4541 17.6786 14.662 17.8418 14.8251C18.005 14.9883 18.2128 15.0994 18.4391 15.1444C18.6655 15.1894 18.9 15.1663 19.1132 15.078C19.3264 14.9897 19.5086 14.8402 19.6368 14.6483C19.765 14.4565 19.8334 14.2309 19.8334 14.0002C19.8334 13.6907 19.7105 13.394 19.4917 13.1752C19.2729 12.9564 18.9762 12.8335 18.6668 12.8335ZM14.0001 2.3335C12.468 2.3335 10.9509 2.63526 9.53545 3.22157C8.11998 3.80787 6.83386 4.66723 5.75051 5.75058C3.56258 7.93851 2.33342 10.906 2.33342 14.0002C2.32322 16.6942 3.25601 19.3068 4.97009 21.3852L2.63675 23.7185C2.47487 23.8826 2.36521 24.0909 2.32161 24.3172C2.278 24.5435 2.30241 24.7777 2.39175 24.9902C2.48866 25.2001 2.64574 25.3765 2.84308 25.497C3.04041 25.6174 3.26909 25.6766 3.50009 25.6668H14.0001C17.0943 25.6668 20.0617 24.4377 22.2497 22.2497C24.4376 20.0618 25.6668 17.0944 25.6668 14.0002C25.6668 10.906 24.4376 7.93851 22.2497 5.75058C20.0617 3.56266 17.0943 2.3335 14.0001 2.3335ZM14.0001 23.3335H6.31175L7.39676 22.2485C7.50699 22.1404 7.59469 22.0116 7.65477 21.8694C7.71485 21.7272 7.74611 21.5745 7.74675 21.4202C7.74237 21.1124 7.61657 20.8189 7.39676 20.6035C5.8691 19.0775 4.91779 17.0691 4.70489 14.9204C4.492 12.7717 5.03069 10.6157 6.22919 8.8196C7.42769 7.02354 9.21184 5.69858 11.2777 5.07046C13.3435 4.44235 15.5633 4.54994 17.5587 5.3749C19.5541 6.19986 21.2017 7.69115 22.2209 9.5947C23.2401 11.4983 23.5678 13.6963 23.1481 15.8143C22.7284 17.9324 21.5873 19.8394 19.9192 21.2104C18.2512 22.5815 16.1593 23.3318 14.0001 23.3335Z" fill="#D90166"/>
</svg>
