<svg width="20" height="20" viewBox="0 0 20 20" fill="none" xmlns="http://www.w3.org/2000/svg">
<path d="M18.6662 12.0556C17.5551 16.8334 12.7774 19.7778 7.99957 18.6667C3.22179 17.5556 0.221794 12.7778 1.33291 8.00006C2.44402 3.22228 7.22179 0.222282 12.0551 1.33339C16.7774 2.4445 19.7773 7.22228 18.6662 12.0556Z" fill="#FFD475"/>
<path d="M18.666 12.0556C16.9993 19.2779 7.72157 21.2779 3.16602 15.6667C8.27713 19.8334 15.9438 17.2223 17.4438 10.8334C18.1105 8.00008 17.3327 5.2223 15.666 3.16675C18.166 5.16675 19.4438 8.61119 18.666 12.0556Z" fill="#FFB961"/>
<g opacity="0.4">
<path d="M5.11102 4.2778C5.33324 4.72225 5.99991 3.7778 7.05546 3.22225C8.11102 2.66669 9.11102 2.7778 8.8888 2.2778C8.66657 1.7778 7.61102 1.88891 6.55546 2.44447C5.49991 3.00002 4.83324 3.83336 5.11102 4.2778Z" fill="white"/>
</g>
<g opacity="0.4">
<path d="M9.94434 2.49995C10.2205 2.49995 10.4443 2.32583 10.4443 2.11106C10.4443 1.89628 10.2205 1.72217 9.94434 1.72217C9.66819 1.72217 9.44434 1.89628 9.44434 2.11106C9.44434 2.32583 9.66819 2.49995 9.94434 2.49995Z" fill="white"/>
</g>
<path d="M16.4436 9.88902C16.4436 13.4446 13.5547 16.3335 9.99913 16.3335C6.44358 16.3335 3.55469 13.4446 3.55469 9.88902C3.55469 6.33347 6.44358 3.44458 9.99913 3.44458C13.5547 3.50014 16.4436 6.33347 16.4436 9.88902Z" fill="#F3A250"/>
<path d="M15.8327 9.88911C15.8327 13.1113 13.2216 15.7224 9.99935 15.7224C6.77713 15.7224 4.16602 13.1113 4.16602 9.88911C4.16602 6.66688 6.77713 4.11133 9.99935 4.11133C13.2216 4.11133 15.8327 6.66688 15.8327 9.88911Z" fill="#F45170"/>
<path d="M15.7764 10.278C15.6098 7.22244 13.1098 4.83355 9.99867 4.83355C6.88756 4.83355 4.38756 7.22244 4.16534 10.278C3.99867 6.72244 6.77645 4.11133 9.99867 4.11133C13.2209 4.11133 15.9987 6.72244 15.7764 10.278Z" fill="#CC104A"/>
<path d="M11.888 10.7779L12.2213 12.8334C12.2769 13.1667 11.9435 13.389 11.6657 13.2223L9.83241 12.2779C9.7213 12.2223 9.61019 12.2223 9.49908 12.2779L7.66574 13.2223C7.38797 13.389 7.05463 13.1112 7.11019 12.8334L7.44352 10.7779C7.44352 10.6667 7.44352 10.5001 7.33241 10.4445L5.83241 9.00008C5.61019 8.77786 5.7213 8.38897 6.05463 8.33341L8.11019 8.05564C8.2213 8.05564 8.33241 7.94453 8.38797 7.83342L9.33241 6.00008C9.49908 5.7223 9.88797 5.7223 9.99908 6.00008L10.9435 7.83342C10.9991 7.94453 11.1102 8.00008 11.2213 8.05564L13.2769 8.33341C13.6102 8.38897 13.7213 8.77786 13.4991 9.00008L11.9991 10.4445C11.888 10.5556 11.888 10.6667 11.888 10.7779Z" fill="#CC104A"/>
<path d="M12.221 11.1114L12.5543 13.1669C12.6099 13.5002 12.2765 13.7225 11.9988 13.5558L10.1654 12.6114C10.0543 12.5558 9.9432 12.5558 9.83208 12.6114L7.99875 13.5558C7.72097 13.7225 7.38764 13.4447 7.4432 13.1669L7.77653 11.1114C7.77653 11.0002 7.77653 10.8336 7.66542 10.778L6.16542 9.33358C5.9432 9.11136 6.05431 8.72247 6.38764 8.66691L8.4432 8.38913C8.55431 8.38913 8.66542 8.27802 8.72097 8.16691L9.66542 6.33358C9.83208 6.0558 10.221 6.0558 10.3321 6.33358L11.2765 8.16691C11.3321 8.27802 11.4432 8.33358 11.5543 8.38913L13.6099 8.66691C13.9432 8.72247 14.0543 9.11136 13.8321 9.33358L12.3321 10.778C12.221 10.8336 12.1654 11.0002 12.221 11.1114Z" fill="#E9E7FC"/>
<g opacity="0.7">
<path d="M6.6104 9.38905C6.38818 9.16683 6.49929 8.8335 6.77707 8.77794L8.6104 8.50016C8.72152 8.50016 8.83263 8.38905 8.88818 8.3335L9.72152 6.66683C9.83263 6.38905 10.2215 6.38905 10.3326 6.66683L11.166 8.3335C11.2215 8.44461 11.3326 8.50016 11.4437 8.50016L13.2771 8.77794C13.5548 8.8335 13.666 9.16683 13.4437 9.38905C13.4437 9.38905 12.2771 10.6668 9.99929 10.6668C8.1104 10.6668 6.6104 9.38905 6.6104 9.38905Z" fill="#F8F9FE"/>
</g>
<path d="M10.0546 7.83358C9.88791 8.22246 9.66569 8.50024 9.49902 8.44469C9.33236 8.38913 9.33236 8.00024 9.49902 7.61135C9.66569 7.22246 9.88791 6.94469 10.0546 7.00024C10.2212 7.0558 10.2212 7.44469 10.0546 7.83358Z" fill="white"/>
<path d="M14.6661 5.77791C14.555 5.77791 14.555 5.94458 14.6661 6.00014C15.1106 6.27791 15.4439 6.50014 15.3883 6.50014C15.3883 6.50014 14.9995 6.33347 14.555 6.11125C14.4439 6.05569 14.3883 6.1668 14.3883 6.22236C14.6106 7.1668 14.8328 8.05569 14.7217 8.11125C14.6661 8.11125 14.3883 7.27791 14.055 6.33347C13.9995 6.22236 13.8883 6.22236 13.8328 6.27791C13.555 6.72236 13.3328 7.05569 13.3328 7.05569C13.2772 7.00014 13.4995 6.6668 13.7217 6.22236C13.7772 6.11125 13.6661 6.05569 13.6106 6.05569C12.6661 6.27791 11.7772 6.44458 11.7217 6.44458C11.7217 6.38902 12.555 6.11125 13.4995 5.77791C13.6106 5.72236 13.6106 5.61125 13.4995 5.55569C13.1106 5.27791 12.7217 5.05569 12.7217 5.05569C12.7772 5.05569 13.1106 5.22236 13.555 5.44458C13.7772 5.44458 13.8883 5.38902 13.8883 5.27791C13.6661 4.33347 13.4439 3.44458 13.4995 3.44458C13.555 3.44458 13.8328 4.27791 14.1661 5.22236C14.2217 5.33347 14.3328 5.33347 14.3883 5.22236C14.6661 4.77791 14.8883 4.44458 14.8883 4.44458C14.9439 4.44458 14.7217 4.83347 14.4995 5.27791C14.4439 5.38902 14.555 5.44458 14.6106 5.44458C15.555 5.22236 16.4439 5.00014 16.4995 5.11125C16.4995 5.1668 15.6106 5.44458 14.6661 5.77791Z" fill="white"/>
</svg>
