<svg width="20" height="21" viewBox="0 0 20 21" fill="none" xmlns="http://www.w3.org/2000/svg">
<path d="M13.5898 21H5.90984C5.14146 20.9889 4.4056 20.6881 3.84939 20.1579C3.29318 19.6276 2.95763 18.907 2.90984 18.14L1.99984 4.3C1.99518 4.19966 2.01045 4.09938 2.04478 4.00498C2.07911 3.91057 2.13181 3.82391 2.19984 3.75C2.26993 3.6734 2.35478 3.61177 2.4493 3.56881C2.54382 3.52584 2.64605 3.50244 2.74984 3.5H16.7498C16.8527 3.49977 16.9545 3.5207 17.0489 3.56148C17.1433 3.60226 17.2283 3.66202 17.2987 3.73704C17.369 3.81207 17.4232 3.90077 17.4578 3.99761C17.4924 4.09446 17.5067 4.19739 17.4998 4.3L16.6298 18.14C16.5815 18.9138 16.2404 19.6402 15.6757 20.1714C15.111 20.7027 14.3652 20.999 13.5898 21ZM3.58984 5L4.35984 18.05C4.38528 18.4435 4.55975 18.8125 4.84772 19.0819C5.13569 19.3513 5.51551 19.5008 5.90984 19.5H13.5898C13.9835 19.4985 14.362 19.3482 14.6495 19.0792C14.9369 18.8103 15.1121 18.4427 15.1398 18.05L15.9498 5.05L3.58984 5Z" fill="black"/>
<path d="M18.75 5H0.75C0.551088 5 0.360322 4.92098 0.21967 4.78033C0.0790175 4.63968 0 4.44891 0 4.25C0 4.05109 0.0790175 3.86032 0.21967 3.71967C0.360322 3.57902 0.551088 3.5 0.75 3.5H18.75C18.9489 3.5 19.1397 3.57902 19.2803 3.71967C19.421 3.86032 19.5 4.05109 19.5 4.25C19.5 4.44891 19.421 4.63968 19.2803 4.78033C19.1397 4.92098 18.9489 5 18.75 5Z" fill="black"/>
<path d="M12.75 5H6.75C6.55189 4.99741 6.36263 4.91756 6.22253 4.77747C6.08244 4.63737 6.00259 4.44811 6 4.25V2.45C6.01268 1.93682 6.22219 1.44816 6.58518 1.08518C6.94816 0.722192 7.43682 0.512677 7.95 0.5H11.55C12.0717 0.513047 12.5677 0.729507 12.932 1.10317C13.2963 1.47684 13.5002 1.97812 13.5 2.5V4.25C13.4974 4.44811 13.4176 4.63737 13.2775 4.77747C13.1374 4.91756 12.9481 4.99741 12.75 5ZM7.5 3.5H12V2.5C12 2.38065 11.9526 2.26619 11.8682 2.1818C11.7838 2.09741 11.6693 2.05 11.55 2.05H7.95C7.83065 2.05 7.71619 2.09741 7.6318 2.1818C7.54741 2.26619 7.5 2.38065 7.5 2.5V3.5Z" fill="black"/>
<path d="M12.75 17C12.5519 16.9974 12.3626 16.9176 12.2225 16.7775C12.0824 16.6374 12.0026 16.4481 12 16.25V8.25C12 8.05109 12.079 7.86032 12.2197 7.71967C12.3603 7.57902 12.5511 7.5 12.75 7.5C12.9489 7.5 13.1397 7.57902 13.2803 7.71967C13.421 7.86032 13.5 8.05109 13.5 8.25V16.25C13.4974 16.4481 13.4176 16.6374 13.2775 16.7775C13.1374 16.9176 12.9481 16.9974 12.75 17Z" fill="black"/>
<path d="M6.75 17C6.55189 16.9974 6.36263 16.9176 6.22253 16.7775C6.08244 16.6374 6.00259 16.4481 6 16.25V8.25C6 8.05109 6.07902 7.86032 6.21967 7.71967C6.36032 7.57902 6.55109 7.5 6.75 7.5C6.94891 7.5 7.13968 7.57902 7.28033 7.71967C7.42098 7.86032 7.5 8.05109 7.5 8.25V16.25C7.49741 16.4481 7.41756 16.6374 7.27747 16.7775C7.13737 16.9176 6.94811 16.9974 6.75 17Z" fill="black"/>
<path d="M9.75 17C9.55189 16.9974 9.36263 16.9176 9.22253 16.7775C9.08244 16.6374 9.00259 16.4481 9 16.25V8.25C9 8.05109 9.07902 7.86032 9.21967 7.71967C9.36032 7.57902 9.55109 7.5 9.75 7.5C9.94891 7.5 10.1397 7.57902 10.2803 7.71967C10.421 7.86032 10.5 8.05109 10.5 8.25V16.25C10.4974 16.4481 10.4176 16.6374 10.2775 16.7775C10.1374 16.9176 9.94811 16.9974 9.75 17Z" fill="black"/>
</svg>
