<svg width="11" height="8" viewBox="0 0 11 8" fill="none" xmlns="http://www.w3.org/2000/svg">
<path d="M10.1221 0.53875C10.1076 0.508179 10.0856 0.482559 10.0587 0.464699C10.0317 0.446839 10.0007 0.437429 9.96914 0.4375H1.03164C1.00008 0.437429 0.969114 0.446839 0.942131 0.464699C0.915148 0.482559 0.893194 0.508179 0.878676 0.53875C0.863955 0.569714 0.857443 0.604543 0.859872 0.639322C0.862301 0.674102 0.873575 0.707453 0.892426 0.735625L5.36118 7.48563C5.37711 7.50964 5.39804 7.52918 5.42224 7.54266C5.44644 7.55614 5.47322 7.56317 5.50039 7.56317C5.52757 7.56317 5.55435 7.55614 5.57855 7.54266C5.60275 7.52918 5.62368 7.50964 5.63961 7.48563L10.1084 0.735625C10.1272 0.707453 10.1385 0.674102 10.1409 0.639322C10.1433 0.604543 10.1368 0.569714 10.1221 0.53875Z" fill="white"/>
</svg>
