<svg width="23" height="24" viewBox="0 0 23 24" fill="none" xmlns="http://www.w3.org/2000/svg">
<path d="M11.4907 16.0991V15.6836L11.0774 15.6421C9.83928 15.5177 8.6639 15.0367 7.69377 14.2575C6.72363 13.4782 6.00043 12.4343 5.61188 11.2522C5.22332 10.0701 5.1861 8.80063 5.50472 7.59779C5.82335 6.39496 6.48414 5.31041 7.40695 4.47569C8.32975 3.64097 9.47493 3.09193 10.7036 2.89517C11.9323 2.69841 13.1916 2.86237 14.329 3.36718C15.4663 3.87199 16.4327 4.69595 17.111 5.73913C17.7893 6.78231 18.1504 7.9999 18.1504 9.24422C18.1483 10.8376 17.5555 12.3737 16.4866 13.5555C15.4176 14.7373 13.9482 15.4808 12.3628 15.6422L11.95 15.6842V16.0991V18.2003V18.6596H12.4093H15.165C15.2259 18.6596 15.2843 18.6838 15.3274 18.7269C15.3705 18.7699 15.3947 18.8283 15.3947 18.8892C15.3947 18.9502 15.3705 19.0086 15.3274 19.0516C15.2843 19.0947 15.2259 19.1189 15.165 19.1189H12.4093H11.95V19.5782V21.645C11.95 21.7059 11.9258 21.7643 11.8828 21.8074C11.8397 21.8504 11.7813 21.8746 11.7204 21.8746C11.6595 21.8746 11.6011 21.8504 11.558 21.8074C11.5149 21.7643 11.4907 21.7059 11.4907 21.645V19.5782V19.1189H11.0314H8.27571C8.21481 19.1189 8.15639 19.0947 8.11333 19.0516C8.07026 19.0086 8.04607 18.9502 8.04607 18.8892C8.04607 18.8283 8.07026 18.7699 8.11333 18.7269C8.15639 18.6838 8.21481 18.6596 8.27571 18.6596H11.0314H11.4907V18.2003V16.0991ZM5.74963 9.24421L5.74963 9.24471C5.75136 10.8276 6.38092 12.3451 7.50018 13.4644C8.61944 14.5837 10.137 15.2132 11.7199 15.2149H11.7204C12.9013 15.2149 14.0556 14.8648 15.0375 14.2087C16.0194 13.5526 16.7847 12.6201 17.2366 11.5291C17.6885 10.4381 17.8068 9.23759 17.5764 8.07938C17.346 6.92117 16.7773 5.85728 15.9423 5.02226C15.1073 4.18724 14.0434 3.61858 12.8852 3.3882C11.727 3.15782 10.5265 3.27606 9.43547 3.72797C8.34446 4.17988 7.41195 4.94516 6.75588 5.92705C6.09981 6.90893 5.74963 8.06331 5.74963 9.24421Z" fill="#212121" stroke="#21262D" stroke-width="0.918575"/>
</svg>
