<svg width="24" height="24" viewBox="0 0 24 24" fill="none" xmlns="http://www.w3.org/2000/svg">
<g clip-path="url(#clip0_4156_6190)">
<path d="M20.8694 10.5584C21.3188 10.004 21.5888 9.29851 21.5888 8.53085C21.5888 6.75248 20.142 5.30566 18.3636 5.30566C16.5853 5.30566 15.1385 6.75248 15.1385 8.53085C15.1385 9.29898 15.4088 10.0049 15.8588 10.5594C15.4328 10.6953 15.0283 10.8942 14.6598 11.1495C14.078 10.3025 13.103 9.7457 12 9.7457C10.897 9.7457 9.92202 10.3025 9.34017 11.1495C8.97165 10.8942 8.56721 10.6953 8.1412 10.5594C8.59116 10.0049 8.86151 9.29898 8.86151 8.53085C8.86151 6.75248 7.41469 5.30566 5.63637 5.30566C3.858 5.30566 2.41118 6.75248 2.41118 8.53085C2.41118 9.29851 2.6812 10.004 3.13064 10.5584C1.31714 11.1369 0 12.8376 0 14.8404V18.8327C0 19.2218 0.315441 19.5372 0.704529 19.5372H6.36377V23.2726C6.36377 23.6617 6.67921 23.9772 7.0683 23.9772H16.9317C17.3208 23.9772 17.6362 23.6617 17.6362 23.2726V19.5372H23.2955C23.6846 19.5372 24 19.2218 24 18.8327V14.8404C24 12.8376 22.6829 11.1369 20.8694 10.5584ZM18.3637 6.71472C19.3651 6.71472 20.1798 7.52944 20.1798 8.53085C20.1798 9.53161 19.3661 10.3459 18.3655 10.3469H18.3619C17.3613 10.3459 16.5476 9.53161 16.5476 8.53085C16.5476 7.52944 17.3623 6.71472 18.3637 6.71472ZM12 11.1548C13.0083 11.1548 13.8298 11.9818 13.8155 12.9976C13.8008 13.9904 12.989 14.787 12 14.787C10.9953 14.787 10.1839 13.9674 10.1839 12.9709C10.1839 11.9828 10.9865 11.1548 12 11.1548ZM5.63637 6.71472C6.63774 6.71472 7.45246 7.52944 7.45246 8.53085C7.45246 9.53161 6.63873 10.3459 5.6382 10.3469H5.63458C4.63397 10.3459 3.82028 9.53161 3.82028 8.53085C3.82024 7.52944 4.63495 6.71472 5.63637 6.71472ZM1.40906 14.8404C1.40906 13.1396 2.7927 11.756 4.49348 11.756H6.77944C7.52634 11.756 8.2481 12.0297 8.8067 12.5164C8.68059 13.4062 8.93408 14.3082 9.49225 14.9985C8.03228 15.4638 6.90358 16.6529 6.51337 18.1282H4.41458V15.4915C4.41458 15.1024 4.09913 14.787 3.71005 14.787C3.32096 14.787 3.00552 15.1024 3.00552 15.4915V18.1282H1.40906V14.8404ZM16.2272 22.5681H14.8181V20.4859C14.8181 20.0968 14.5027 19.7813 14.1136 19.7813C13.7245 19.7813 13.4091 20.0968 13.4091 20.4859V22.5681H10.5909V20.4859C10.5909 20.0968 10.2755 19.7813 9.88641 19.7813C9.49733 19.7813 9.18189 20.0968 9.18189 20.4859V22.5681H7.77283V19.2803C7.77283 17.5863 9.15079 16.196 10.8571 16.196H13.1429C14.8469 16.196 16.2272 17.5839 16.2272 19.2803V22.5681ZM22.5909 18.1282H20.9945V15.4915C20.9945 15.1024 20.679 14.787 20.29 14.787C19.9009 14.787 19.5854 15.1024 19.5854 15.4915V18.1282H17.4866C17.099 16.6626 15.9773 15.4669 14.5077 14.9985C15.0464 14.3323 15.3237 13.4365 15.1933 12.5164C15.7519 12.0297 16.4737 11.756 17.2206 11.756H19.5065C21.2073 11.756 22.5909 13.1396 22.5909 14.8404V18.1282Z" fill="#D90166"/>
<path d="M8.1951 3.59315C8.35606 3.94729 8.77371 4.10407 9.12799 3.94297C9.48223 3.78196 9.63887 3.36432 9.47781 3.01008L8.53844 0.943462C8.37739 0.589225 7.95965 0.432538 7.60555 0.59364C7.25131 0.754649 7.09467 1.17229 7.25573 1.52653L8.1951 3.59315Z" fill="#D90166"/>
<path d="M14.8717 3.94295C15.2263 4.1041 15.6437 3.94699 15.8046 3.59313L16.7439 1.52651C16.905 1.17227 16.7483 0.754581 16.3941 0.59362C16.0398 0.432565 15.6222 0.589205 15.4612 0.943442L14.5218 3.01006C14.3608 3.3643 14.5174 3.78194 14.8717 3.94295Z" fill="#D90166"/>
<path d="M11.9999 3.49078C12.389 3.49078 12.7045 3.17534 12.7045 2.78625V0.727478C12.7045 0.33839 12.389 0.0229492 11.9999 0.0229492C11.6109 0.0229492 11.2954 0.33839 11.2954 0.727478V2.78625C11.2954 3.17534 11.6109 3.49078 11.9999 3.49078Z" fill="#D90166"/>
</g>
<defs>
<clipPath id="clip0_4156_6190">
<rect width="24" height="24" fill="white"/>
</clipPath>
</defs>
</svg>
