<svg width="24" height="25" viewBox="0 0 24 25" fill="none" xmlns="http://www.w3.org/2000/svg">
<g clip-path="url(#clip0_4156_5611)">
<path d="M12 0.5C5.36761 0.5 0 5.867 0 12.5C0 19.1323 5.367 24.5 12 24.5C18.6324 24.5 24 19.133 24 12.5C24 5.86761 18.633 0.5 12 0.5ZM12 22.8256C6.30647 22.8256 1.67442 18.1936 1.67442 12.5C1.67442 6.80642 6.30647 2.17442 12 2.17442C17.6936 2.17442 22.3256 6.80642 22.3256 12.5C22.3256 18.1936 17.6936 22.8256 12 22.8256Z" fill="black"/>
<path d="M11.6448 15.6841C10.9814 15.6841 10.4443 16.2369 10.4443 16.9003C10.4443 17.548 10.9656 18.1166 11.6448 18.1166C12.324 18.1166 12.861 17.548 12.861 16.9003C12.861 16.2369 12.3082 15.6841 11.6448 15.6841Z" fill="black"/>
<path d="M11.85 6.4751C9.71759 6.4751 8.73828 7.7388 8.73828 8.59174C8.73828 9.20777 9.25953 9.49211 9.686 9.49211C10.539 9.49211 10.1915 8.2758 11.8026 8.2758C12.5924 8.2758 13.2243 8.62333 13.2243 9.34994C13.2243 10.2029 12.3397 10.6925 11.8184 11.1348C11.3603 11.5296 10.7601 12.1773 10.7601 13.5357C10.7601 14.3571 10.9813 14.594 11.6289 14.594C12.4028 14.594 12.5608 14.2466 12.5608 13.9464C12.5608 13.125 12.5766 12.6512 13.4454 11.9719C13.8718 11.6403 15.2144 10.5661 15.2144 9.08135C15.2144 7.59658 13.8718 6.4751 11.85 6.4751Z" fill="black"/>
</g>
<defs>
<clipPath id="clip0_4156_5611">
<rect width="24" height="24" fill="white" transform="translate(0 0.5)"/>
</clipPath>
</defs>
</svg>
