<svg width="18" height="24" viewBox="0 0 18 24" fill="none" xmlns="http://www.w3.org/2000/svg">
<path d="M8.41495 23.6869C8.54536 23.8825 8.76492 24 9 24C9.23508 24 9.45464 23.8825 9.58505 23.6869C11.2491 21.1909 13.7 18.1084 15.408 14.9733C16.7736 12.4666 17.4375 10.3287 17.4375 8.4375C17.4375 3.78506 13.6524 0 9 0C4.34756 0 0.5625 3.78506 0.5625 8.4375C0.5625 10.3287 1.22639 12.4666 2.59205 14.9733C4.29872 18.106 6.75436 21.1961 8.41495 23.6869ZM9 1.40625C12.877 1.40625 16.0312 4.56047 16.0312 8.4375C16.0312 10.0877 15.4234 12.0055 14.1731 14.3006C12.7009 17.0029 10.6 19.7441 9 22.0485C7.4002 19.7444 5.29922 17.003 3.82692 14.3006C2.57658 12.0055 1.96875 10.0877 1.96875 8.4375C1.96875 4.56047 5.12297 1.40625 9 1.40625Z" fill="black"/>
<path d="M9 12.6562C11.3262 12.6562 13.2188 10.7637 13.2188 8.4375C13.2188 6.11128 11.3262 4.21875 9 4.21875C6.67378 4.21875 4.78125 6.11128 4.78125 8.4375C4.78125 10.7637 6.67378 12.6562 9 12.6562ZM9 5.625C10.5508 5.625 11.8125 6.88669 11.8125 8.4375C11.8125 9.98831 10.5508 11.25 9 11.25C7.44919 11.25 6.1875 9.98831 6.1875 8.4375C6.1875 6.88669 7.44919 5.625 9 5.625Z" fill="black"/>
</svg>
