<svg width="20" height="20" viewBox="0 0 20 20" fill="none" xmlns="http://www.w3.org/2000/svg">
<path d="M9.98926 6.862e-05C9.85776 0.00136267 9.72781 0.0286656 9.60683 0.080462C9.48586 0.132258 9.37625 0.207524 9.28426 0.301919C9.19228 0.396314 9.11973 0.508055 9.07077 0.630643C9.02181 0.753232 8.99739 0.884271 8.99893 1.01635V9.05442C8.999 9.32104 9.1045 9.57676 9.29223 9.76527C9.47996 9.95378 9.73455 10.0596 10 10.0596C10.2655 10.0596 10.52 9.95378 10.7078 9.76527C10.8955 9.57676 11.001 9.32104 11.0011 9.05442V1.01635C11.0026 0.882453 10.9775 0.749576 10.9272 0.625568C10.8769 0.501561 10.8025 0.388874 10.7082 0.294191C10.6139 0.199507 10.5018 0.124752 10.3783 0.0742335C10.2548 0.023715 10.1226 -0.00149615 9.98926 6.862e-05ZM15.8238 2.01498C15.7912 2.01404 15.7586 2.01469 15.7261 2.01694C15.5284 2.0338 15.3402 2.10938 15.1853 2.23401C15.0304 2.35865 14.916 2.52669 14.8565 2.71683C14.7971 2.90698 14.7952 3.11066 14.8513 3.30185C14.9074 3.49304 15.0188 3.66315 15.1714 3.79055C16.9038 5.2682 17.9998 7.46751 17.9998 9.93725C17.9998 14.3967 14.4347 17.991 10.0049 17.991C5.57505 17.991 2.00214 14.3967 2.00215 9.93725C2.00215 7.4818 3.08422 5.29742 4.79929 3.81997C4.89921 3.7343 4.98136 3.62967 5.04103 3.51212C5.1007 3.39457 5.13674 3.26637 5.14708 3.13483C5.15743 3.00329 5.14187 2.87106 5.10131 2.74556C5.06075 2.62005 4.99597 2.50381 4.91068 2.40345C4.82538 2.30309 4.72125 2.22059 4.60421 2.16066C4.48717 2.10072 4.35953 2.06446 4.22857 2.05408C4.0976 2.0437 3.96589 2.05935 3.84094 2.1001C3.71599 2.14085 3.60025 2.2059 3.50034 2.29157C1.35939 4.1359 9.41104e-06 6.88497 0 9.93725C-8.99526e-06 15.4806 4.49228 20 10.0049 20C15.5175 20 20 15.4806 20 9.93725C20 6.86717 18.6272 4.10679 16.4645 2.26216C16.2866 2.10644 16.0597 2.01889 15.8238 2.01498Z" fill="black"/>
</svg>
