<svg width="18" height="19" viewBox="0 0 18 19" fill="none" xmlns="http://www.w3.org/2000/svg">
<path d="M15.9598 2.64648L16.7438 1.86242H15.635H13.1643C13.1034 1.86242 13.045 1.83823 13.002 1.79516C12.9589 1.7521 12.9347 1.69369 12.9347 1.63278C12.9347 1.57187 12.9589 1.51346 13.002 1.4704C13.045 1.42733 13.1034 1.40314 13.1643 1.40314H17.2979C17.3588 1.40314 17.4172 1.42733 17.4603 1.4704C17.5034 1.51346 17.5276 1.57187 17.5276 1.63278V5.76637C17.5276 5.82727 17.5034 5.88568 17.4603 5.92875C17.4172 5.97182 17.3588 5.99601 17.2979 5.99601C17.237 5.99601 17.1786 5.97182 17.1355 5.92875C17.0925 5.88568 17.0683 5.82727 17.0683 5.76637V3.29655V2.18792L16.2843 2.97174L12.6613 6.5938L12.3675 6.88757L12.6305 7.20928C13.6745 8.48651 14.1877 10.1162 14.0639 11.7611C13.9401 13.4061 13.1889 14.9406 11.9655 16.0473C10.7421 17.1539 9.14018 17.748 7.49106 17.7067C5.84194 17.6654 4.27177 16.9919 3.1053 15.8254C1.93883 14.6589 1.26529 13.0888 1.224 11.4396C1.18271 9.79052 1.77682 8.18861 2.88345 6.96522C3.99008 5.74184 5.52457 4.99057 7.16956 4.86679C8.81455 4.74302 10.4442 5.25621 11.7214 6.30023L12.0431 6.56316L12.3369 6.26939L15.9598 2.64648ZM11.8735 15.5029L11.874 15.5024C12.9919 14.3815 13.6197 12.863 13.6197 11.28C13.6197 9.69691 12.9919 8.17846 11.874 7.05758L11.8735 7.05707C11.0384 6.22232 9.97447 5.65393 8.81633 5.42376C7.65819 5.1936 6.45782 5.31199 5.36696 5.76398C4.27611 6.21597 3.34377 6.98126 2.68781 7.96308C2.03186 8.94491 1.68175 10.0992 1.68175 11.28C1.68175 12.4608 2.03186 13.615 2.68781 14.5969C3.34377 15.5787 4.27611 16.344 5.36696 16.796C6.45782 17.2479 7.65819 17.3663 8.81633 17.1362C9.97447 16.906 11.0384 16.3376 11.8735 15.5029Z" fill="#212121" stroke="#21262D" stroke-width="0.918575"/>
</svg>
