<svg width="30" height="30" viewBox="0 0 30 30" fill="none" xmlns="http://www.w3.org/2000/svg">
<path d="M17.0887 3.16064H12.9108C11.8242 3.16064 10.9434 4.04148 10.9434 5.12805V9.16726H19.056V5.12805C19.0561 4.04148 18.1752 3.16064 17.0887 3.16064Z" fill="#FE76A8"/>
<path d="M15.0353 3.16064C13.9488 3.16064 13.0681 4.04131 13.0681 5.12787V9.16732H10.9434V5.12787C10.9434 4.04137 11.824 3.16064 12.9106 3.16064H15.0353Z" fill="#FE5694"/>
<path d="M17.4013 2.40174C17.4013 3.72848 16.3262 4.80414 14.9995 4.80414C13.6727 4.80414 12.5977 3.72848 12.5977 2.40174C12.5977 2.08486 12.6592 1.7824 12.7709 1.50537C13.7481 1.9058 13.9896 1.68514 14.9995 1.68514C16.0093 1.68514 16.1173 1.97488 17.228 1.50537C17.3397 1.7824 17.4013 2.0848 17.4013 2.40174Z" fill="#FFDFCF"/>
<path d="M17.2286 1.50545C16.8737 2.38852 16.0099 3.01148 15 3.01148C13.9902 3.01148 13.1264 2.38857 12.7715 1.50545C13.1264 0.62291 13.9902 0 15 0C16.0099 0 16.8737 0.62291 17.2286 1.50545Z" fill="#7A6D79"/>
<path d="M17.0887 26.8394H12.9108C11.8242 26.8394 10.9434 25.9585 10.9434 24.872V20.8328H19.056V24.872C19.0561 25.9585 18.1752 26.8394 17.0887 26.8394Z" fill="#8AC9FE"/>
<path d="M15.0353 26.8394C13.9488 26.8394 13.0681 25.9588 13.0681 24.8722V20.8328H10.9434V24.8722C10.9434 25.9587 11.824 26.8394 12.9106 26.8394H15.0353Z" fill="#60B7FF"/>
<path d="M17.4023 27.5982C17.4023 26.2715 16.3272 25.1958 15.0004 25.1958C13.6737 25.1958 12.5986 26.2715 12.5986 27.5982C12.5986 27.9151 12.6602 28.2175 12.7719 28.4946C13.7491 28.0941 13.9906 28.3148 15.0004 28.3148C16.0103 28.3148 16.1182 28.0251 17.229 28.4946C17.3407 28.2175 17.4023 27.9151 17.4023 27.5982Z" fill="#FFDFCF"/>
<path d="M17.2286 28.4946C16.8737 27.6114 16.0099 26.9885 15 26.9885C13.9902 26.9885 13.1264 27.6114 12.7715 28.4946C13.1264 29.3771 13.9902 30 15 30C16.0099 30 16.8737 29.3771 17.2286 28.4946Z" fill="#7A6D79"/>
<path d="M5.79132 7.27137L3.70239 10.8895C3.15911 11.8305 3.48149 13.0338 4.42251 13.5771L7.92056 15.5967L11.9769 8.57092L8.47884 6.55131C7.53782 6.00797 6.3346 6.33035 5.79132 7.27137Z" fill="#8AC9FE"/>
<path d="M4.76473 9.04956C4.22145 9.99052 4.54383 11.1936 5.48479 11.7368L8.98307 13.7565L7.92071 15.5966L4.42243 13.5769C3.48147 13.0336 3.15914 11.8306 3.70237 10.8896L4.76473 9.04956Z" fill="#60B7FF"/>
<path d="M5.29068 6.62088C6.43971 7.28428 6.83369 8.75311 6.17035 9.90213C5.50695 11.0512 4.03789 11.4443 2.88887 10.781C2.61441 10.6225 2.38332 10.418 2.19922 10.1827C3.03459 9.53668 2.96422 9.21717 3.46918 8.3426C3.97408 7.46803 4.279 7.51941 4.42783 6.32275C4.72355 6.36453 5.01623 6.46244 5.29068 6.62088Z" fill="#AE6C6C"/>
<path d="M4.42774 6.32286C5.01508 7.0718 5.12266 8.1313 4.6177 9.00587C4.1128 9.88044 3.14137 10.317 2.19912 10.1828C1.61237 9.43419 1.50479 8.37469 2.00969 7.50012C2.51465 6.62555 3.48602 6.18897 4.42774 6.32286Z" fill="#7A6D79"/>
<path d="M26.2979 19.1106L24.209 22.7288C23.6657 23.6698 22.4625 23.9922 21.5215 23.4489L18.0234 21.4293L22.0798 14.4036L25.5778 16.4232C26.5188 16.9665 26.8412 18.1697 26.2979 19.1106Z" fill="#9BE69D"/>
<path d="M25.2713 20.889C24.728 21.83 23.525 22.1523 22.5841 21.6091L19.0858 19.5894L18.0234 21.4294L21.5217 23.4492C22.4627 23.9924 23.6657 23.6701 24.2089 22.7291L25.2713 20.889Z" fill="#6FD7A3"/>
<path d="M27.1115 19.2191C25.9624 18.5557 24.4934 18.9489 23.83 20.098C23.1666 21.247 23.5606 22.7158 24.7097 23.3792C24.9841 23.5376 25.2768 23.6356 25.5726 23.6774C25.7144 22.6309 26.0263 22.5321 26.5312 21.6575C27.0361 20.783 26.8392 20.5446 27.8012 19.8174C27.617 19.5821 27.3859 19.3776 27.1115 19.2191Z" fill="#FFDFCF"/>
<path d="M27.8013 19.8173C26.859 19.6832 25.8877 20.1197 25.3827 20.9943C24.8778 21.8689 24.9854 22.9284 25.5727 23.6773C26.5144 23.8112 27.4857 23.3746 27.9907 22.5001C28.4957 21.6255 28.3881 20.5659 27.8013 19.8173Z" fill="#7A6D79"/>
<path d="M3.70238 19.1106L5.7913 22.7288C6.33458 23.6698 7.53781 23.9922 8.47882 23.4489L11.9769 21.4293L7.9206 14.4036L4.42255 16.4232C3.48154 16.9665 3.1591 18.1697 3.70238 19.1106Z" fill="#7A6D79"/>
<path d="M4.72949 20.889C5.27277 21.83 6.47576 22.1523 7.41672 21.6091L10.915 19.5894L11.9774 21.4294L8.47908 23.4492C7.53813 23.9924 6.33508 23.6701 5.79186 22.7291L4.72949 20.889Z" fill="#685E68"/>
<path d="M2.88893 19.2191C4.03795 18.5557 5.50701 18.9489 6.17041 20.098C6.83381 21.247 6.43977 22.7158 5.29074 23.3792C5.01629 23.5376 4.72361 23.6356 4.42783 23.6774C4.28604 22.6309 3.97414 22.5321 3.46918 21.6575C2.96428 20.783 3.16121 20.5446 2.19922 19.8174C2.38338 19.5821 2.61447 19.3776 2.88893 19.2191Z" fill="#FFDFCF"/>
<path d="M2.19917 19.8173C3.14141 19.6832 4.11278 20.1197 4.61774 20.9943C5.12264 21.8689 5.01507 22.9284 4.42778 23.6773C3.48606 23.8112 2.51469 23.3746 2.00973 22.5001C1.50477 21.6255 1.61235 20.5659 2.19917 19.8173Z" fill="#7A6D79"/>
<path d="M24.209 7.27137L26.2979 10.8895C26.8412 11.8305 26.5188 13.0338 25.5778 13.5771L22.0798 15.5967L18.0234 8.57092L21.5215 6.55131C22.4625 6.00797 23.6657 6.33035 24.209 7.27137Z" fill="#FFE177"/>
<path d="M25.2359 9.04956C25.7792 9.99052 25.4568 11.1936 24.5159 11.7368L21.0176 13.7565L22.0799 15.5966L25.5782 13.5769C26.5192 13.0336 26.8415 11.8306 26.2983 10.8896L25.2359 9.04956Z" fill="#FECE85"/>
<path d="M24.7096 6.62088C23.5606 7.28428 23.1666 8.75311 23.83 9.90213C24.4934 11.0512 25.9624 11.4443 27.1114 10.781C27.3859 10.6225 27.617 10.418 27.8011 10.1827C26.9657 9.53668 27.0361 9.21717 26.5311 8.3426C26.0262 7.46803 25.7213 7.51941 25.5725 6.32275C25.2768 6.36453 24.9841 6.46244 24.7096 6.62088Z" fill="#AE6C6C"/>
<path d="M25.5727 6.32286C24.9854 7.0718 24.8778 8.1313 25.3827 9.00587C25.8876 9.88044 26.8591 10.317 27.8013 10.1828C28.3881 9.43419 28.4957 8.37469 27.9907 7.50012C27.4858 6.62555 26.5144 6.18897 25.5727 6.32286Z" fill="#7A6D79"/>
<path d="M15 23.1621C19.5078 23.1621 23.1621 19.5078 23.1621 15C23.1621 10.4922 19.5078 6.83789 15 6.83789C10.4922 6.83789 6.83789 10.4922 6.83789 15C6.83789 19.5078 10.4922 23.1621 15 23.1621Z" fill="#DC8758"/>
<path d="M16.2796 13.0357L14.9303 16.2363C14.8469 16.4342 14.6188 16.527 14.4209 16.4435L9.90781 14.5409C9.70994 14.4575 9.61713 14.2294 9.70057 14.0315L11.0499 10.8309C11.1333 10.633 11.3613 10.5402 11.5593 10.6237L16.0723 12.5263C16.2702 12.6098 16.363 12.8379 16.2796 13.0357Z" fill="#D8ECFE"/>
<path d="M20.3928 16.703L17.2072 18.0875C17.0103 18.1731 16.7812 18.0828 16.6956 17.8859L14.7433 13.3941C14.6577 13.1971 14.7479 12.9681 14.9449 12.8825L18.1304 11.4979C18.3274 11.4123 18.5564 11.5026 18.642 11.6995L20.5944 16.1913C20.68 16.3883 20.5897 16.6174 20.3928 16.703Z" fill="#F9F7F8"/>
<path d="M19.8351 19.1019L16.6496 20.4865C16.4526 20.5721 16.2236 20.4818 16.138 20.2848L14.1856 15.793C14.1 15.596 14.1903 15.367 14.3873 15.2814L17.5728 13.8968C17.7698 13.8112 17.9988 13.9015 18.0844 14.0984L20.0368 18.5902C20.1224 18.7872 20.0321 19.0163 19.8351 19.1019Z" fill="#F5F8F9"/>
<path d="M15.7075 23.1315C15.4745 23.152 15.2385 23.1622 15 23.1622C10.4922 23.1622 6.83789 19.5079 6.83789 15.0001C6.83789 10.4922 10.4922 6.83789 15.0001 6.83789C15.2385 6.83789 15.4745 6.84814 15.7075 6.86865C11.531 7.2266 8.25275 10.7306 8.25275 15.0001C8.25275 19.2695 11.531 22.7735 15.7075 23.1315Z" fill="#C57A44"/>
<path d="M16.2959 21.7381L17.0106 22.4528V24.8721H19.0562V21.9856C19.0562 21.7417 18.959 21.5075 18.7864 21.3349L17.7428 20.2913L16.7143 20.728L16.2959 21.7381Z" fill="#8AC9FE"/>
<path d="M16.0219 21.464L16.296 21.7381L17.7428 20.2912L17.4688 20.0172C17.269 19.8174 17.007 19.7178 16.7456 19.7178C16.4836 19.7178 16.2217 19.8174 16.0219 20.0172C15.6229 20.4167 15.6229 21.0644 16.0219 21.464Z" fill="#FFDFCF"/>
<path d="M22.5446 8.32261L20.4494 9.53228L20.2126 10.4153L19.406 10.7631C19.2597 11.3087 18.4417 11.1277 18.5879 10.5819L18.2363 9.88542L18.5934 8.55288C18.6566 8.31716 18.8108 8.11624 19.0221 7.99419L21.5217 6.55103" fill="#FFE177"/>
<path d="M19.1 11.6409C19.0124 11.6409 18.9231 11.6294 18.8344 11.6058C18.2893 11.4592 17.9651 10.8984 18.1112 10.3533L18.2361 9.8855L20.2124 10.4155L20.0875 10.8827C19.9649 11.3396 19.5521 11.6409 19.1 11.6409Z" fill="#9B5E5E"/>
<path d="M5.44566 18.1947L7.54086 16.9851L8.42352 17.2214C8.42352 17.2214 9.39723 17.0075 9.54353 16.4619C9.6899 15.9161 8.9535 15.2452 8.9535 15.2452L7.62066 14.8881C7.38494 14.8249 7.13381 14.8579 6.92246 14.98L4.42285 16.4231L5.44566 18.1947Z" fill="#7A6D79"/>
<path d="M10.1792 16.358C10.1792 16.4455 10.1677 16.5348 10.1441 16.6236C9.99748 17.1687 9.43668 17.4929 8.89164 17.3468L8.42383 17.2219L8.95381 15.2456L9.42104 15.3705C9.87795 15.493 10.1792 15.9059 10.1792 16.358Z" fill="#FFDFCF"/>
<path d="M13.7037 21.7386L12.989 22.4533V24.8726H10.9434V21.9861C10.9434 21.7422 11.0406 21.508 11.2132 21.3354L12.2569 20.2917L13.2854 20.7284L13.7037 21.7386Z" fill="#60B7FF"/>
<path d="M13.9777 21.4645L13.7037 21.7386L12.2568 20.2917L12.5309 20.0177C12.7307 19.8179 12.9927 19.7183 13.254 19.7183C13.516 19.7183 13.778 19.8179 13.9778 20.0177C14.3768 20.4172 14.3768 21.0649 13.9777 21.4645Z" fill="#FFDFCF"/>
</svg>
