<svg width="24" height="24" viewBox="0 0 24 24" fill="none" xmlns="http://www.w3.org/2000/svg">
<path d="M12.0002 5.33337C13.473 5.33337 14.6669 4.13946 14.6669 2.66669C14.6669 1.19392 13.473 0 12.0002 0C10.5274 0 9.3335 1.19392 9.3335 2.66669C9.3335 4.13946 10.5274 5.33337 12.0002 5.33337Z" fill="#D90166"/>
<path d="M12.0002 14.6669C13.473 14.6669 14.6669 13.473 14.6669 12.0002C14.6669 10.5274 13.473 9.3335 12.0002 9.3335C10.5274 9.3335 9.3335 10.5274 9.3335 12.0002C9.3335 13.473 10.5274 14.6669 12.0002 14.6669Z" fill="#D90166"/>
<path d="M12.0002 23.9999C13.473 23.9999 14.6669 22.806 14.6669 21.3332C14.6669 19.8604 13.473 18.6665 12.0002 18.6665C10.5274 18.6665 9.3335 19.8604 9.3335 21.3332C9.3335 22.806 10.5274 23.9999 12.0002 23.9999Z" fill="#D90166"/>
</svg>
