<svg width="24" height="24" viewBox="0 0 24 24" fill="none" xmlns="http://www.w3.org/2000/svg">
<g clip-path="url(#clip0_4236_4820)">
<path d="M23.9689 20.6386L22.6727 16.3643C23.4004 15.0029 23.7836 13.4731 23.7836 11.9196C23.7836 6.71704 19.5509 2.48438 14.3483 2.48438C11.1978 2.48438 8.40364 4.03674 6.68904 6.41638C3.01429 6.90033 0.168465 10.0525 0.168465 13.8572C0.168465 15.0705 0.462533 16.2658 1.02119 17.3341L0.0311363 20.5985C-0.0463174 20.8537 0.0232628 21.1308 0.211678 21.3194C0.349374 21.457 0.534127 21.5312 0.722909 21.5312C0.793039 21.5312 0.863717 21.521 0.932748 21.5001L4.19715 20.51C5.26539 21.0687 6.46052 21.3627 7.67396 21.3627C8.79713 21.3627 9.86318 21.1143 10.8208 20.6702C11.911 21.1113 13.1018 21.3549 14.3483 21.3549C15.9018 21.3549 17.4317 20.9716 18.7931 20.244L23.0673 21.5402C23.1363 21.5611 23.207 21.5713 23.2771 21.5713C23.4659 21.5713 23.6507 21.4971 23.7882 21.3595C23.9768 21.171 24.0464 20.8938 23.9689 20.6386ZM18.9194 18.7714C18.7275 18.7134 18.5204 18.7374 18.3472 18.8377C17.1374 19.5386 15.7546 19.9091 14.3483 19.9091C9.94301 19.9091 6.3589 16.325 6.3589 11.9196C6.3589 7.5141 9.94301 3.93018 14.3483 3.93018C18.7537 3.93018 22.3378 7.51429 22.3378 11.9196C22.3378 13.3259 21.9674 14.7087 21.2664 15.9185C21.1661 16.0917 21.1421 16.299 21.2002 16.4907L22.193 19.7642L18.9194 18.7714ZM7.67396 19.9169C6.60737 19.9169 5.55855 19.6359 4.64119 19.1045C4.52986 19.0401 4.4048 19.0071 4.27864 19.0071C4.20832 19.0071 4.13765 19.0173 4.06898 19.0382L1.80708 19.7241L2.49299 17.4622C2.55104 17.2705 2.52705 17.0634 2.42671 16.89C1.89515 15.9727 1.61408 14.9238 1.61408 13.8572C1.61408 11.2026 3.33015 8.94141 5.71107 8.12403C5.19838 9.28602 4.91291 10.5701 4.91291 11.9196C4.91291 15.1767 6.57185 18.0535 9.08919 19.7496C8.63509 19.8587 8.16121 19.9169 7.67396 19.9169Z" fill="#D90166"/>
<path d="M15.434 13.8623H11.0569C10.6577 13.8623 10.334 14.1859 10.334 14.5852C10.334 14.9844 10.6577 15.3081 11.0569 15.3081H15.434C15.8332 15.3081 16.1567 14.9844 16.1567 14.5852C16.1567 14.1859 15.8332 13.8623 15.434 13.8623Z" fill="#D90166"/>
<path d="M17.6403 11.1968H11.0569C10.6577 11.1968 10.334 11.5205 10.334 11.9197C10.334 12.319 10.6577 12.6426 11.0569 12.6426H17.6403C18.0394 12.6426 18.3632 12.319 18.3632 11.9197C18.3632 11.5205 18.0394 11.1968 17.6403 11.1968Z" fill="#D90166"/>
<path d="M17.6403 8.53149H11.0569C10.6577 8.53149 10.334 8.85522 10.334 9.2544C10.334 9.65357 10.6577 9.9773 11.0569 9.9773H17.6403C18.0394 9.9773 18.3632 9.65357 18.3632 9.2544C18.3632 8.85522 18.0394 8.53149 17.6403 8.53149Z" fill="#D90166"/>
</g>
<defs>
<clipPath id="clip0_4236_4820">
<rect width="24" height="24" fill="white"/>
</clipPath>
</defs>
</svg>
