<svg width="30" height="30" viewBox="0 0 30 30" fill="none" xmlns="http://www.w3.org/2000/svg">
<g clip-path="url(#clip0_4159_8534)">
<path d="M2.21245 16.5625H2.1875C1.49826 16.5625 0.9375 17.1233 0.9375 17.8125V25.9375C0.9375 26.6267 1.49826 27.1875 2.1875 27.1875H2.21245C2.1977 27.0852 2.1875 26.9814 2.1875 26.875V16.875C2.1875 16.7686 2.1977 16.6648 2.21245 16.5625Z" fill="white"/>
<path d="M27.8125 16.5625H27.7876C27.8023 16.6648 27.8125 16.7686 27.8125 16.875V26.875C27.8125 26.9814 27.8023 27.0852 27.7876 27.1875H27.8125C28.5018 27.1875 29.0625 26.6267 29.0625 25.9375V17.8125C29.0625 17.1233 28.5018 16.5625 27.8125 16.5625Z" fill="white"/>
<path d="M28.125 2.8125H28.75C28.9226 2.8125 29.0625 2.67258 29.0625 2.5C29.0625 2.32742 28.9226 2.1875 28.75 2.1875H28.125C27.9524 2.1875 27.8125 2.32742 27.8125 2.5C27.8125 2.67258 27.9524 2.8125 28.125 2.8125Z" fill="white"/>
<path d="M26.25 2.8125H26.875C27.0476 2.8125 27.1875 2.67258 27.1875 2.5C27.1875 2.32742 27.0476 2.1875 26.875 2.1875H26.25C26.0774 2.1875 25.9375 2.32742 25.9375 2.5C25.9375 2.67258 26.0774 2.8125 26.25 2.8125Z" fill="white"/>
<path d="M27.5 2.1875C27.6726 2.1875 27.8125 2.04758 27.8125 1.875V1.25C27.8125 1.07742 27.6726 0.9375 27.5 0.9375C27.3274 0.9375 27.1875 1.07742 27.1875 1.25V1.875C27.1875 2.04758 27.3274 2.1875 27.5 2.1875Z" fill="white"/>
<path d="M27.8125 3.125C27.8125 2.95242 27.6726 2.8125 27.5 2.8125C27.3274 2.8125 27.1875 2.95242 27.1875 3.125V3.75C27.1875 3.92258 27.3274 4.0625 27.5 4.0625C27.6726 4.0625 27.8125 3.92258 27.8125 3.75V3.125Z" fill="white"/>
<path d="M19.375 0.9375H10.625C6.31714 0.9375 2.8125 4.44214 2.8125 8.75V15.347C3.2099 14.9407 3.76314 14.6875 4.375 14.6875H5.3125V8.75C5.3125 5.82062 7.69562 3.4375 10.625 3.4375H19.375C22.3044 3.4375 24.6875 5.82062 24.6875 8.75V14.6875H25.625C26.2369 14.6875 26.7901 14.9407 27.1875 15.347V8.75C27.1875 4.44214 23.6829 0.9375 19.375 0.9375Z" fill="white"/>
<path d="M3.23877 3.23853C3.36084 3.11646 3.36084 2.9187 3.23877 2.79663L2.79688 2.35474C2.6748 2.23267 2.47705 2.23267 2.35498 2.35474C2.23291 2.47681 2.23291 2.67456 2.35498 2.79663L2.79688 3.23853C2.85791 3.29956 2.93787 3.33008 3.01782 3.33008C3.09778 3.33008 3.17773 3.29956 3.23877 3.23853Z" fill="white"/>
<path d="M1.47095 1.91284C1.53198 1.97388 1.61194 2.00439 1.69189 2.00439C1.77185 2.00439 1.85181 1.97388 1.91284 1.91284C2.03491 1.79077 2.03491 1.59302 1.91284 1.47095L1.47095 1.02905C1.34888 0.906982 1.15112 0.906982 1.02905 1.02905C0.906982 1.15112 0.906982 1.34888 1.02905 1.47095L1.47095 1.91284Z" fill="white"/>
<path d="M2.57593 2.00439C2.65588 2.00439 2.73584 1.97388 2.79688 1.91284L3.23877 1.47095C3.36084 1.34888 3.36084 1.15112 3.23877 1.02905C3.1167 0.906982 2.91895 0.906982 2.79688 1.02905L2.35498 1.47095C2.23291 1.59302 2.23291 1.79077 2.35498 1.91284C2.41602 1.97388 2.49597 2.00439 2.57593 2.00439Z" fill="white"/>
<path d="M1.25 3.33008C1.32996 3.33008 1.40991 3.29956 1.47095 3.23853L1.91284 2.79663C2.03491 2.67456 2.03491 2.47681 1.91284 2.35474C1.79077 2.23267 1.59302 2.23267 1.47095 2.35474L1.02905 2.79663C0.906982 2.9187 0.906982 3.11646 1.02905 3.23853C1.09009 3.29956 1.17004 3.33008 1.25 3.33008Z" fill="white"/>
<path d="M18.4375 21.5624H17.1875C17.0441 21.5624 16.9191 21.66 16.8843 21.7991L16.2679 24.2649L14.68 17.1196C14.6481 16.9754 14.5309 16.8673 14.3716 16.8749C14.2239 16.8764 14.0976 16.9812 14.0686 17.1261L13.1813 21.5624H11.5625C11.3899 21.5624 11.25 21.7023 11.25 21.8749C11.25 22.0475 11.3899 22.1874 11.5625 22.1874H13.4375C13.5864 22.1874 13.7148 22.0823 13.7439 21.9362L14.391 18.7003L15.945 25.6926C15.9764 25.8341 16.1009 25.9354 16.2459 25.9374H16.25C16.3933 25.9374 16.5184 25.8399 16.5532 25.7007L17.4315 22.1874H18.4375C18.6101 22.1874 18.75 22.0475 18.75 21.8749C18.75 21.7023 18.6101 21.5624 18.4375 21.5624Z" fill="white"/>
<path d="M20.625 14.6875C20.108 14.6875 19.6875 15.108 19.6875 15.625V15.9375H22.8125C22.9851 15.9375 23.125 16.0774 23.125 16.25C23.125 16.4226 22.9851 16.5625 22.8125 16.5625H19.6875V17.1875H22.8125C22.9851 17.1875 23.125 17.3274 23.125 17.5C23.125 17.6726 22.9851 17.8125 22.8125 17.8125H19.6875V18.4375H22.8125C22.9851 18.4375 23.125 18.5774 23.125 18.75C23.125 18.9226 22.9851 19.0625 22.8125 19.0625H19.6875V19.6875H22.8125C22.9851 19.6875 23.125 19.8274 23.125 20C23.125 20.1726 22.9851 20.3125 22.8125 20.3125H19.6875V20.9375H22.8125C22.9851 20.9375 23.125 21.0774 23.125 21.25C23.125 21.4226 22.9851 21.5625 22.8125 21.5625H19.6875V22.1875H22.8125C22.9851 22.1875 23.125 22.3274 23.125 22.5C23.125 22.6726 22.9851 22.8125 22.8125 22.8125H19.6875V23.4375H22.8125C22.9851 23.4375 23.125 23.5774 23.125 23.75C23.125 23.9226 22.9851 24.0625 22.8125 24.0625H19.6875V24.6875H22.8125C22.9851 24.6875 23.125 24.8274 23.125 25C23.125 25.1726 22.9851 25.3125 22.8125 25.3125H19.6875V25.9375H22.8125C22.9851 25.9375 23.125 26.0774 23.125 26.25C23.125 26.4226 22.9851 26.5625 22.8125 26.5625H19.6875V27.1875H22.8125C22.9851 27.1875 23.125 27.3274 23.125 27.5C23.125 27.6726 22.9851 27.8125 22.8125 27.8125H19.6875V28.125C19.6875 28.642 20.108 29.0625 20.625 29.0625H23.125C23.235 29.0625 23.3397 29.042 23.4375 29.0068V14.7432C23.3397 14.708 23.235 14.6875 23.125 14.6875H20.625Z" fill="white"/>
<path d="M25.625 15.3125H24.0625V28.4375H25.625C26.4865 28.4375 27.1875 27.7365 27.1875 26.875V16.875C27.1875 16.0135 26.4865 15.3125 25.625 15.3125Z" fill="white"/>
<path d="M2.8125 16.875V26.875C2.8125 27.7365 3.51349 28.4375 4.375 28.4375H5.9375V15.3125H4.375C3.51349 15.3125 2.8125 16.0135 2.8125 16.875Z" fill="white"/>
<path d="M9.375 14.6875H6.875C6.76498 14.6875 6.66029 14.708 6.5625 14.7432V29.0068C6.66029 29.042 6.76498 29.0625 6.875 29.0625H9.375C9.89197 29.0625 10.3125 28.642 10.3125 28.125V27.8125H7.1875C7.01492 27.8125 6.875 27.6726 6.875 27.5C6.875 27.3274 7.01492 27.1875 7.1875 27.1875H10.3125V26.5625H7.1875C7.01492 26.5625 6.875 26.4226 6.875 26.25C6.875 26.0774 7.01492 25.9375 7.1875 25.9375H10.3125V25.3125H7.1875C7.01492 25.3125 6.875 25.1726 6.875 25C6.875 24.8274 7.01492 24.6875 7.1875 24.6875H10.3125V24.0625H7.1875C7.01492 24.0625 6.875 23.9226 6.875 23.75C6.875 23.5774 7.01492 23.4375 7.1875 23.4375H10.3125V22.8125H7.1875C7.01492 22.8125 6.875 22.6726 6.875 22.5C6.875 22.3274 7.01492 22.1875 7.1875 22.1875H10.3125V21.5625H7.1875C7.01492 21.5625 6.875 21.4226 6.875 21.25C6.875 21.0774 7.01492 20.9375 7.1875 20.9375H10.3125V20.3125H7.1875C7.01492 20.3125 6.875 20.1726 6.875 20C6.875 19.8274 7.01492 19.6875 7.1875 19.6875H10.3125V19.0625H7.1875C7.01492 19.0625 6.875 18.9226 6.875 18.75C6.875 18.5774 7.01492 18.4375 7.1875 18.4375H10.3125V17.8125H7.1875C7.01492 17.8125 6.875 17.6726 6.875 17.5C6.875 17.3274 7.01492 17.1875 7.1875 17.1875H10.3125V16.5625H7.1875C7.01492 16.5625 6.875 16.4226 6.875 16.25C6.875 16.0774 7.01492 15.9375 7.1875 15.9375H10.3125V15.625C10.3125 15.108 9.89197 14.6875 9.375 14.6875Z" fill="white"/>
<path d="M11.875 9.375C12.0476 9.375 12.1875 9.23508 12.1875 9.0625C12.1875 8.88992 12.0476 8.75 11.875 8.75H11.25C11.0774 8.75 10.9375 8.88992 10.9375 9.0625C10.9375 9.23508 11.0774 9.375 11.25 9.375H11.875Z" fill="white"/>
<path d="M10 9.375C10.1726 9.375 10.3125 9.23508 10.3125 9.0625C10.3125 8.88992 10.1726 8.75 10 8.75H9.375C9.20242 8.75 9.0625 8.88992 9.0625 9.0625C9.0625 9.23508 9.20242 9.375 9.375 9.375H10Z" fill="white"/>
<path d="M10.625 8.75C10.7976 8.75 10.9375 8.61008 10.9375 8.4375V7.8125C10.9375 7.63992 10.7976 7.5 10.625 7.5C10.4524 7.5 10.3125 7.63992 10.3125 7.8125V8.4375C10.3125 8.61008 10.4524 8.75 10.625 8.75Z" fill="white"/>
<path d="M10.625 9.375C10.4524 9.375 10.3125 9.51492 10.3125 9.6875V10.3125C10.3125 10.4851 10.4524 10.625 10.625 10.625C10.7976 10.625 10.9375 10.4851 10.9375 10.3125V9.6875C10.9375 9.51492 10.7976 9.375 10.625 9.375Z" fill="white"/>
<path d="M20.2053 11.7676C20.2853 11.7676 20.3652 11.7371 20.4263 11.676C20.5483 11.554 20.5483 11.3562 20.4263 11.2341L19.9844 10.7922C19.8623 10.6702 19.6646 10.6702 19.5425 10.7922C19.4204 10.9143 19.4204 11.1121 19.5425 11.2341L19.9844 11.676C20.0454 11.7371 20.1254 11.7676 20.2053 11.7676Z" fill="white"/>
<path d="M18.6584 9.46655C18.5364 9.34448 18.3386 9.34448 18.2166 9.46655C18.0945 9.58862 18.0945 9.78638 18.2166 9.90845L18.6584 10.3503C18.7195 10.4114 18.7994 10.4419 18.8794 10.4419C18.9594 10.4419 19.0393 10.4114 19.1003 10.3503C19.2224 10.2283 19.2224 10.0305 19.1003 9.90845L18.6584 9.46655Z" fill="white"/>
<path d="M19.7634 10.4419C19.8434 10.4419 19.9233 10.4114 19.9844 10.3503L20.4263 9.90845C20.5483 9.78638 20.5483 9.58862 20.4263 9.46655C20.3042 9.34448 20.1064 9.34448 19.9844 9.46655L19.5425 9.90845C19.4204 10.0305 19.4204 10.2283 19.5425 10.3503C19.6035 10.4114 19.6835 10.4419 19.7634 10.4419Z" fill="white"/>
<path d="M18.6584 10.7922L18.2166 11.2341C18.0945 11.3562 18.0945 11.554 18.2166 11.676C18.2776 11.7371 18.3575 11.7676 18.4375 11.7676C18.5175 11.7676 18.5974 11.7371 18.6584 11.676L19.1003 11.2341C19.2224 11.1121 19.2224 10.9143 19.1003 10.7922C18.9783 10.6702 18.7805 10.6702 18.6584 10.7922Z" fill="white"/>
<path d="M12.0325 14.3586C12.2789 14.7831 12.7603 15.0026 13.3231 15.0026C13.7508 15.0026 14.2255 14.8757 14.6791 14.6152C15.2881 14.2655 15.7391 13.7299 15.8858 13.1824C15.9313 13.0125 15.9447 12.8473 15.9307 12.6897C15.932 12.6782 15.9375 12.668 15.9375 12.6561V8.22489L17.8063 7.84988C18.5344 7.70613 19.0625 7.06238 19.0625 6.31863V5.46863C19.0625 5.37489 19.0219 5.28738 18.9469 5.228C18.875 5.16863 18.7813 5.14362 18.6875 5.16237L15.5625 5.78737C15.4188 5.8155 15.3125 5.94362 15.3125 6.09363V11.7556C14.7532 11.4477 13.9132 11.4991 13.1334 11.9471C12.5244 12.2968 12.0734 12.8324 11.9267 13.3799C11.8312 13.7366 11.8678 14.075 12.0325 14.3586Z" fill="white"/>
</g>
<defs>
<clipPath id="clip0_4159_8534">
<rect width="30" height="30" fill="white"/>
</clipPath>
</defs>
</svg>
