<svg width="23" height="23" viewBox="0 0 23 23" fill="none" xmlns="http://www.w3.org/2000/svg">
<path d="M17.2713 4.53564L18.0554 3.75158H16.9465H15.1648C15.1039 3.75158 15.0455 3.72739 15.0024 3.68432C14.9593 3.64126 14.9351 3.58285 14.9351 3.52194C14.9351 3.46103 14.9593 3.40262 15.0024 3.35956C15.0455 3.31649 15.1039 3.2923 15.1648 3.2923H18.6094C18.6704 3.2923 18.7288 3.31649 18.7718 3.35956C18.8149 3.40262 18.8391 3.46103 18.8391 3.52194V6.9666C18.8391 7.0275 18.8149 7.08591 18.7718 7.12898C18.7288 7.17204 18.6704 7.19624 18.6094 7.19624C18.5485 7.19624 18.4901 7.17204 18.4471 7.12898C18.404 7.08591 18.3798 7.0275 18.3798 6.9666V5.18485V4.07573L17.5957 4.86014L15.3429 7.11381L15.0812 7.3756L15.2814 7.68693C15.7428 8.40437 16.0147 9.22707 16.0718 10.0781C16.1289 10.9292 15.9693 11.7808 15.6079 12.5535C15.2464 13.3261 14.6951 13.9945 14.0052 14.4962C13.3154 14.9979 12.5096 15.3164 11.6632 15.4222L11.2608 15.4724V15.8779V17.3006V17.7599H11.7201H13.7869C13.8478 17.7599 13.9062 17.784 13.9493 17.8271C13.9924 17.8702 14.0166 17.9286 14.0166 17.9895C14.0166 18.0504 13.9924 18.1088 13.9493 18.1519C13.9062 18.1949 13.8478 18.2191 13.7869 18.2191H11.7201H11.2608V18.6784V20.7452C11.2608 20.8061 11.2366 20.8645 11.1936 20.9076C11.1505 20.9507 11.0921 20.9749 11.0312 20.9749C10.9703 20.9749 10.9119 20.9507 10.8688 20.9076C10.8258 20.8645 10.8016 20.8061 10.8016 20.7452V18.6784V18.2191H10.3423H8.27547C8.21457 18.2191 8.15616 18.1949 8.11309 18.1519C8.07003 18.1088 8.04583 18.0504 8.04583 17.9895C8.04583 17.9286 8.07003 17.8702 8.11309 17.8271C8.15616 17.784 8.21457 17.7599 8.27547 17.7599H10.3423H10.8016V17.3006V15.8779V15.4723L10.399 15.4222C9.60826 15.3237 8.85201 15.0396 8.19202 14.5931C7.53204 14.1465 6.98704 13.5502 6.60154 12.8528C6.21605 12.1554 6.00099 11.3767 5.97392 10.5803C5.94686 9.78388 6.10856 8.99238 6.44582 8.27041C6.78308 7.54845 7.28634 6.9165 7.91449 6.42618C8.54263 5.93586 9.27785 5.60107 10.0601 5.44917C10.8423 5.29727 11.6494 5.33256 12.4154 5.55216C13.1814 5.77175 13.8846 6.16942 14.4676 6.7127L14.7919 7.01499L15.1055 6.70146L17.2713 4.53564ZM11.0312 15.0041L11.0317 15.0041C12.2493 15.0029 13.4166 14.5186 14.2776 13.6576C15.1386 12.7967 15.6228 11.6293 15.6241 10.4117V10.4113C15.6241 9.50287 15.3547 8.61488 14.85 7.85959C14.3454 7.10429 13.6281 6.51561 12.7888 6.16799C11.9496 5.82036 11.0261 5.72941 10.1352 5.90663C9.24424 6.08384 8.42587 6.52127 7.78355 7.1636C7.14122 7.80592 6.70379 8.6243 6.52658 9.51523C6.34936 10.4062 6.44031 11.3296 6.78794 12.1689C7.13556 13.0081 7.72424 13.7254 8.47953 14.2301C9.23483 14.7348 10.1228 15.0041 11.0312 15.0041Z" fill="#212121" stroke="#21262D" stroke-width="0.918575"/>
</svg>
