<svg width="24" height="24" viewBox="0 0 24 24" fill="none" xmlns="http://www.w3.org/2000/svg">
<g clip-path="url(#clip0_4156_5506)">
<path d="M12.9102 14.71C13.6884 13.9317 14.6353 13.3835 15.6684 13.0993C15.1274 12.2563 14.4228 11.5281 13.6001 10.959C12.5961 11.7487 11.3692 12.2671 10.031 12.4027V16.2766H8.62471V12.4027C7.28643 12.2671 6.05957 11.7487 5.0556 10.959C3.09013 12.3186 1.7998 14.5881 1.7998 17.1537V19.1536H11.0751C11.0751 19.1492 11.075 19.1448 11.075 19.1404C11.075 17.4668 11.7268 15.8934 12.9102 14.71Z" fill="black"/>
<path d="M17.3408 14.2812C14.6571 14.2812 12.4814 16.4569 12.4814 19.1406C12.4814 21.8244 14.6571 24 17.3408 24C20.0246 24 22.2002 21.8244 22.2002 19.1406C22.2002 16.4569 20.0246 14.2812 17.3408 14.2812ZM19.8973 19.8437H14.7845V18.4375H19.8973V19.8437Z" fill="#DB340B"/>
<path d="M13.2259 9.41646C15.3798 7.26263 15.3798 3.77058 13.2259 1.61675C11.0721 -0.537085 7.58005 -0.537086 5.42622 1.61675C3.27239 3.77058 3.27239 7.26263 5.42622 9.41646C7.58005 11.5703 11.0721 11.5703 13.2259 9.41646Z" fill="black"/>
</g>
<defs>
<clipPath id="clip0_4156_5506">
<rect width="24" height="24" fill="white"/>
</clipPath>
</defs>
</svg>
