<svg width="40" height="40" viewBox="0 0 40 40" fill="none" xmlns="http://www.w3.org/2000/svg">
<path d="M19.9997 3.3335C16.7033 3.3335 13.481 4.31098 10.7402 6.14234C7.99936 7.97369 5.86315 10.5767 4.60169 13.6221C3.34023 16.6675 3.01017 20.0187 3.65326 23.2517C4.29635 26.4847 5.88369 29.4544 8.21457 31.7853C10.5454 34.1162 13.5152 35.7035 16.7482 36.3466C19.9812 36.9897 23.3323 36.6596 26.3777 35.3982C29.4232 34.1367 32.0261 32.0005 33.8575 29.2597C35.6889 26.5189 36.6663 23.2965 36.6663 20.0002C36.6663 17.8115 36.2353 15.6442 35.3977 13.6221C34.5601 11.6 33.3324 9.76269 31.7848 8.21505C30.2372 6.66741 28.3998 5.43975 26.3777 4.60217C24.3556 3.76459 22.1884 3.3335 19.9997 3.3335ZM18.333 25.0002C18.333 25.4422 18.1574 25.8661 17.8449 26.1787C17.5323 26.4912 17.1084 26.6668 16.6663 26.6668C16.2243 26.6668 15.8004 26.4912 15.4878 26.1787C15.1753 25.8661 14.9997 25.4422 14.9997 25.0002V15.0002C14.9997 14.5581 15.1753 14.1342 15.4878 13.8217C15.8004 13.5091 16.2243 13.3335 16.6663 13.3335C17.1084 13.3335 17.5323 13.5091 17.8449 13.8217C18.1574 14.1342 18.333 14.5581 18.333 15.0002V25.0002ZM24.9997 25.0002C24.9997 25.4422 24.8241 25.8661 24.5115 26.1787C24.199 26.4912 23.775 26.6668 23.333 26.6668C22.891 26.6668 22.4671 26.4912 22.1545 26.1787C21.8419 25.8661 21.6663 25.4422 21.6663 25.0002V15.0002C21.6663 14.5581 21.8419 14.1342 22.1545 13.8217C22.4671 13.5091 22.891 13.3335 23.333 13.3335C23.775 13.3335 24.199 13.5091 24.5115 13.8217C24.8241 14.1342 24.9997 14.5581 24.9997 15.0002V25.0002Z" fill="#D90166"/>
</svg>
