<svg width="21" height="22" viewBox="0 0 21 22" fill="none" xmlns="http://www.w3.org/2000/svg">
<path d="M9.33984 11.5C6.16984 11.5 3.58984 8.92 3.58984 5.75C3.58984 2.58 6.16984 0 9.33984 0C12.5098 0 15.0898 2.58 15.0898 5.75C15.0898 8.92 12.5098 11.5 9.33984 11.5ZM9.33984 1.5C6.99984 1.5 5.08984 3.41 5.08984 5.75C5.08984 8.09 6.99984 10 9.33984 10C11.6798 10 13.5898 8.09 13.5898 5.75C13.5898 3.41 11.6798 1.5 9.33984 1.5Z" fill="black"/>
<path d="M13.1594 21.4999C12.7794 21.4999 12.4194 21.3599 12.1594 21.0999C11.8494 20.7899 11.7094 20.3399 11.7794 19.8699L11.9694 18.5199C12.0194 18.1699 12.2294 17.7599 12.4794 17.4999L16.0194 13.9599C17.4394 12.5399 18.6894 13.3499 19.2994 13.9599C19.8194 14.4799 20.0894 15.0399 20.0894 15.5999C20.0894 16.1699 19.8294 16.6999 19.2994 17.2299L15.7593 20.7699C15.5093 21.0199 15.0894 21.2299 14.7394 21.2799L13.3893 21.4698C13.3093 21.4898 13.2394 21.4999 13.1594 21.4999ZM17.6494 14.6699C17.4694 14.6699 17.3094 14.7899 17.0794 15.0199L13.5394 18.5599C13.5094 18.5899 13.4594 18.6899 13.4594 18.7299L13.2794 19.9799L14.5294 19.7999C14.5694 19.7899 14.6693 19.7399 14.6993 19.7099L18.2394 16.1699C18.3994 16.0099 18.5894 15.7799 18.5894 15.5999C18.5894 15.4499 18.4694 15.2399 18.2394 15.0199C17.9994 14.7799 17.8194 14.6699 17.6494 14.6699Z" fill="black"/>
<path d="M18.2604 17.9698C18.1904 17.9698 18.1204 17.9599 18.0604 17.9399C16.7404 17.5699 15.6904 16.5199 15.3204 15.1999C15.2104 14.7999 15.4404 14.3899 15.8404 14.2799C16.2404 14.1699 16.6504 14.3999 16.7604 14.7999C16.9904 15.6199 17.6404 16.2699 18.4604 16.4999C18.8604 16.6099 19.0904 17.0299 18.9804 17.4199C18.8904 17.7499 18.5904 17.9698 18.2604 17.9698Z" fill="black"/>
<path d="M0.75 21.5C0.34 21.5 0 21.16 0 20.75C0 16.48 4.19002 13 9.34004 13C10.43 13 11.51 13.16 12.52 13.46C12.92 13.58 13.14 14 13.02 14.39C12.9 14.79 12.48 15.01 12.09 14.89C11.21 14.63 10.29 14.49 9.34004 14.49C5.02002 14.49 1.5 17.29 1.5 20.74C1.5 21.16 1.16 21.5 0.75 21.5Z" fill="black"/>
</svg>
