<svg width="24" height="25" viewBox="0 0 24 25" fill="none" xmlns="http://www.w3.org/2000/svg">
<path d="M18.0708 13.6644C18.0156 13.4947 17.8689 13.3711 17.6923 13.3455L14.0493 12.8171L12.4192 9.51656C12.3402 9.35662 12.1773 9.25537 11.9989 9.25537H11.9988C11.8203 9.25542 11.6574 9.35676 11.5785 9.51679L9.95024 12.8182L6.30749 13.3485C6.13096 13.3742 5.98429 13.498 5.92917 13.6677C5.87409 13.8374 5.92007 14.0237 6.0479 14.1482L8.68462 16.717L8.06329 20.3453C8.03315 20.5211 8.10548 20.6989 8.24985 20.8037C8.33151 20.863 8.42816 20.8931 8.52533 20.8931C8.60001 20.8931 8.67496 20.8753 8.74354 20.8392L12.0014 19.1254L15.2602 20.8375C15.4181 20.9204 15.6094 20.9066 15.7538 20.8016C15.8982 20.6967 15.9704 20.519 15.9402 20.3431L15.3169 16.7151L17.9523 14.145C18.08 14.0204 18.1259 13.8341 18.0708 13.6644ZM14.4859 16.2161C14.3756 16.3238 14.3251 16.479 14.3513 16.631L14.8555 19.5658L12.2194 18.1808C12.0828 18.1091 11.9197 18.1092 11.783 18.181L9.14765 19.5673L9.65029 16.6323C9.67635 16.4802 9.62586 16.325 9.51538 16.2174L7.38243 14.1394L10.3292 13.7105C10.4818 13.6882 10.6138 13.5923 10.682 13.4539L11.9992 10.7833L13.3178 13.4532C13.3861 13.5915 13.5181 13.6873 13.6708 13.7095L16.6178 14.137L14.4859 16.2161Z" fill="black"/>
<path d="M6.53956 16.9719C6.48434 16.8022 6.33767 16.6786 6.16109 16.653L4.4615 16.4065L3.701 14.8667C3.62202 14.7067 3.45913 14.6055 3.28072 14.6055H3.28058C3.10218 14.6055 2.93924 14.7069 2.8603 14.8669L2.10065 16.4071L0.401245 16.6545C0.224714 16.6802 0.0780425 16.8039 0.0229176 16.9736C-0.0321604 17.1433 0.0138238 17.3296 0.141652 17.4541L1.37179 18.6525L1.08192 20.3453C1.05177 20.5211 1.1241 20.6988 1.26848 20.8036C1.35013 20.8629 1.44679 20.8931 1.54396 20.8931C1.61863 20.8931 1.69354 20.8753 1.76212 20.8393L3.28204 20.0397L4.80233 20.8384C4.9603 20.9213 5.15169 20.9075 5.29597 20.8026C5.44034 20.6977 5.51258 20.5199 5.48234 20.344L5.19163 18.6515L6.42111 17.4525C6.5488 17.3279 6.59473 17.1416 6.53956 16.9719ZM4.36058 18.1524C4.25019 18.2601 4.19975 18.4153 4.22591 18.5674L4.39757 19.5667L3.49996 19.0951C3.36341 19.0234 3.20024 19.0235 3.06369 19.0952L2.16627 19.5673L2.33741 18.5678C2.36348 18.4157 2.31299 18.2606 2.20251 18.1529L1.47623 17.4453L2.47963 17.2993C2.6323 17.2771 2.76426 17.1811 2.83251 17.0427L3.28101 16.1334L3.73002 17.0425C3.79832 17.1809 3.93032 17.2767 4.08299 17.2989L5.08649 17.4444L4.36058 18.1524Z" fill="black"/>
<path d="M23.9771 16.9736C23.9221 16.8039 23.7754 16.6802 23.5988 16.6545L21.8994 16.4071L21.1398 14.8669C21.0608 14.7069 20.8979 14.6055 20.7195 14.6055H20.7193C20.5409 14.6055 20.378 14.7067 20.2991 14.8667L19.5386 16.4065L17.839 16.653C17.6624 16.6786 17.5157 16.8022 17.4605 16.9719C17.4053 17.1416 17.4512 17.3279 17.5789 17.4525L18.8084 18.6515L18.5177 20.344C18.4875 20.5199 18.5598 20.6976 18.7041 20.8026C18.8484 20.9075 19.0398 20.9214 19.1977 20.8384L20.718 20.0397L22.2379 20.8393C22.3065 20.8753 22.3814 20.8931 22.4561 20.8931C22.5532 20.8931 22.6499 20.863 22.7316 20.8036C22.876 20.6988 22.9483 20.521 22.9182 20.3452L22.6283 18.6525L23.8584 17.4541C23.9862 17.3296 24.0322 17.1433 23.9771 16.9736ZM21.7976 18.1529C21.6871 18.2606 21.6366 18.4157 21.6627 18.5678L21.8338 19.5673L20.9364 19.0952C20.8681 19.0593 20.7932 19.0413 20.7182 19.0413C20.6433 19.0413 20.5684 19.0593 20.5002 19.0951L19.6026 19.5667L19.7742 18.5674C19.8004 18.4153 19.75 18.2601 19.6396 18.1524L18.9137 17.4444L19.9172 17.2989C20.0698 17.2767 20.2018 17.1809 20.2701 17.0425L20.7191 16.1334L21.1676 17.0427C21.2359 17.1811 21.3678 17.2771 21.5205 17.2993L22.5239 17.4453L21.7976 18.1529Z" fill="black"/>
<path d="M18.3315 8.74272C18.1483 8.55972 17.8516 8.55972 17.6685 8.74272L16.1217 10.2896C15.9386 10.4727 15.9386 10.7695 16.1217 10.9525C16.2132 11.044 16.3331 11.0898 16.4531 11.0898C16.5731 11.0898 16.6931 11.0441 16.7846 10.9525L18.3315 9.40567C18.5145 9.22258 18.5145 8.92577 18.3315 8.74272Z" fill="black"/>
<path d="M19.4393 7.63539C19.3516 7.54816 19.2312 7.49805 19.1074 7.49805C18.9841 7.49805 18.8632 7.5482 18.776 7.63539C18.6888 7.72258 18.6387 7.84351 18.6387 7.9668C18.6387 8.0905 18.6888 8.21101 18.776 8.29815C18.8632 8.38581 18.9841 8.43555 19.1074 8.43555C19.2311 8.43555 19.3516 8.38586 19.4393 8.29815C19.5264 8.21101 19.5762 8.09055 19.5762 7.9668C19.5762 7.84351 19.5264 7.72258 19.4393 7.63539Z" fill="black"/>
<path d="M5.22445 7.63539C5.1368 7.54816 5.01633 7.49805 4.89258 7.49805C4.7693 7.49805 4.64883 7.5482 4.56117 7.63539C4.47394 7.72258 4.42383 7.84351 4.42383 7.9668C4.42383 8.0905 4.47398 8.21101 4.56117 8.29815C4.64883 8.38581 4.76976 8.43555 4.89258 8.43555C5.01581 8.43555 5.1368 8.38586 5.22445 8.29815C5.31164 8.21101 5.36179 8.09008 5.36179 7.9668C5.36179 7.84351 5.31159 7.72258 5.22445 7.63539Z" fill="black"/>
<path d="M7.81522 10.2264L6.33149 8.74272C6.14835 8.55972 5.85163 8.55972 5.66853 8.74272C5.48549 8.92581 5.48549 9.22262 5.66853 9.40567L7.15227 10.8894C7.24381 10.9809 7.36372 11.0267 7.48372 11.0267C7.60367 11.0267 7.72362 10.9809 7.81522 10.8894C7.99826 10.7063 7.99826 10.4094 7.81522 10.2264Z" fill="black"/>
<path d="M12 4.10693C11.7412 4.10693 11.5312 4.31684 11.5312 4.57568V7.75708C11.5312 8.01593 11.7412 8.22583 12 8.22583C12.2589 8.22583 12.4687 8.01593 12.4687 7.75708V4.57568C12.4687 4.31684 12.2588 4.10693 12 4.10693Z" fill="black"/>
</svg>
