<svg width="24" height="24" viewBox="0 0 24 24" fill="none" xmlns="http://www.w3.org/2000/svg">
<path d="M19.8999 12.4557C19.7396 12.2762 19.6512 12.0453 19.6512 11.8064C19.6512 11.5674 19.7396 11.3365 19.8999 11.157L21.1799 9.74023C21.3209 9.58543 21.4085 9.39066 21.4301 9.18386C21.4516 8.97705 21.4061 8.76884 21.2999 8.5891L19.2999 5.1849C19.1948 5.00537 19.0348 4.86306 18.8426 4.77826C18.6505 4.69346 18.4361 4.6705 18.2299 4.71265L16.3499 5.08652C16.1107 5.13515 15.8616 5.09595 15.6498 4.97632C15.4379 4.8567 15.2779 4.66491 15.1999 4.43716L14.5899 2.63668C14.5228 2.44126 14.395 2.27153 14.2245 2.15147C14.0541 2.03142 13.8495 1.96711 13.6399 1.96765H9.6399C9.42183 1.95645 9.20603 2.01578 9.02546 2.13659C8.84489 2.2574 8.70948 2.43304 8.6399 2.63668L8.0799 4.43716C8.0019 4.66491 7.84187 4.8567 7.63001 4.97632C7.41815 5.09595 7.16911 5.13515 6.9299 5.08652L4.9999 4.71265C4.80445 4.68547 4.6052 4.71582 4.42724 4.79986C4.24929 4.8839 4.1006 5.01787 3.9999 5.1849L1.9999 8.5891C1.89106 8.76683 1.84212 8.97388 1.86008 9.18062C1.87804 9.38737 1.96198 9.58324 2.0999 9.74023L3.3699 11.157C3.53022 11.3365 3.61863 11.5674 3.61863 11.8064C3.61863 12.0453 3.53022 12.2762 3.3699 12.4557L2.0999 13.8725C1.96198 14.0295 1.87804 14.2253 1.86008 14.4321C1.84212 14.6388 1.89106 14.8459 1.9999 15.0236L3.9999 18.4278C4.10499 18.6073 4.26502 18.7497 4.45715 18.8345C4.64928 18.9193 4.86372 18.9422 5.0699 18.9001L6.9499 18.5262C7.18911 18.4776 7.43815 18.5168 7.65001 18.6364C7.86187 18.756 8.0219 18.9478 8.0999 19.1756L8.7099 20.976C8.77948 21.1797 8.91489 21.3553 9.09546 21.4761C9.27603 21.5969 9.49183 21.6563 9.7099 21.6451H13.7099C13.9195 21.6456 14.1241 21.5813 14.2945 21.4612C14.465 21.3412 14.5928 21.1715 14.6599 20.976L15.2699 19.1756C15.3479 18.9478 15.5079 18.756 15.7198 18.6364C15.9316 18.5168 16.1807 18.4776 16.4199 18.5262L18.2999 18.9001C18.5061 18.9422 18.7205 18.9193 18.9126 18.8345C19.1048 18.7497 19.2648 18.6073 19.3699 18.4278L21.3699 15.0236C21.4761 14.8439 21.5216 14.6357 21.5001 14.4289C21.4785 14.2221 21.3909 14.0273 21.2499 13.8725L19.8999 12.4557ZM18.4099 13.7741L19.2099 14.6596L17.9299 16.8438L16.7499 16.6076C16.0297 16.4628 15.2805 16.5832 14.6445 16.9459C14.0085 17.3086 13.53 17.8885 13.2999 18.5754L12.9199 19.6773H10.3599L9.9999 18.5557C9.76975 17.8688 9.29128 17.289 8.6553 16.9262C8.01932 16.5635 7.27012 16.4431 6.5499 16.588L5.3699 16.8241L4.0699 14.6497L4.8699 13.7643C5.36185 13.2231 5.63383 12.5225 5.63383 11.7965C5.63383 11.0705 5.36185 10.3699 4.8699 9.82878L4.0699 8.94329L5.3499 6.77878L6.5299 7.0149C7.25012 7.15975 7.99932 7.03938 8.6353 6.67665C9.27128 6.31391 9.74975 5.73406 9.9799 5.04716L10.3599 3.93539H12.9199L13.2999 5.057C13.53 5.7439 14.0085 6.32375 14.6445 6.68649C15.2805 7.04922 16.0297 7.16959 16.7499 7.02474L17.9299 6.78861L19.2099 8.97281L18.4099 9.85829C17.9235 10.3982 17.6549 11.0947 17.6549 11.8162C17.6549 12.5377 17.9235 13.2342 18.4099 13.7741ZM11.6399 7.87087C10.8488 7.87087 10.0754 8.10169 9.41761 8.53412C8.75982 8.96656 8.24713 9.5812 7.94438 10.3003C7.64163 11.0194 7.56241 11.8107 7.71675 12.5741C7.8711 13.3375 8.25206 14.0388 8.81147 14.5892C9.37088 15.1396 10.0836 15.5144 10.8595 15.6662C11.6355 15.8181 12.4397 15.7401 13.1706 15.4423C13.9015 15.1444 14.5262 14.64 14.9658 13.9928C15.4053 13.3456 15.6399 12.5847 15.6399 11.8064C15.6399 10.7626 15.2185 9.7616 14.4683 9.02355C13.7182 8.2855 12.7008 7.87087 11.6399 7.87087ZM11.6399 13.7741C11.2443 13.7741 10.8577 13.6587 10.5288 13.4425C10.1999 13.2263 9.94351 12.9189 9.79214 12.5594C9.64076 12.1998 9.60116 11.8042 9.67833 11.4225C9.7555 11.0408 9.94598 10.6901 10.2257 10.415C10.5054 10.1398 10.8618 9.95235 11.2497 9.87642C11.6377 9.8005 12.0398 9.83947 12.4053 9.9884C12.7707 10.1373 13.0831 10.3895 13.3028 10.7131C13.5226 11.0367 13.6399 11.4172 13.6399 11.8064C13.6399 12.3282 13.4292 12.8287 13.0541 13.1978C12.679 13.5668 12.1703 13.7741 11.6399 13.7741Z" fill="#D90166"/>
</svg>
