<svg width="20" height="20" viewBox="0 0 20 20" fill="none" xmlns="http://www.w3.org/2000/svg">
<path d="M1.47497 11.0415H1.45833C0.99884 11.0415 0.625 11.4153 0.625 11.8748V17.2915C0.625 17.751 0.99884 18.1248 1.45833 18.1248H1.47497C1.46514 18.0566 1.45833 17.9874 1.45833 17.9165V11.2498C1.45833 11.1789 1.46514 11.1097 1.47497 11.0415Z" fill="white"/>
<path d="M18.542 11.0415H18.5254C18.5352 11.1097 18.542 11.1789 18.542 11.2498V17.9165C18.542 17.9874 18.5352 18.0566 18.5254 18.1248H18.542C19.0015 18.1248 19.3754 17.751 19.3754 17.2915V11.8748C19.3754 11.4153 19.0015 11.0415 18.542 11.0415Z" fill="white"/>
<path d="M18.7503 1.87516H19.167C19.282 1.87516 19.3753 1.78188 19.3753 1.66683C19.3753 1.55178 19.282 1.4585 19.167 1.4585H18.7503C18.6353 1.4585 18.542 1.55178 18.542 1.66683C18.542 1.78188 18.6353 1.87516 18.7503 1.87516Z" fill="white"/>
<path d="M17.5003 1.87516H17.917C18.032 1.87516 18.1253 1.78188 18.1253 1.66683C18.1253 1.55178 18.032 1.4585 17.917 1.4585H17.5003C17.3853 1.4585 17.292 1.55178 17.292 1.66683C17.292 1.78188 17.3853 1.87516 17.5003 1.87516Z" fill="white"/>
<path d="M18.3333 1.45833C18.4484 1.45833 18.5417 1.36505 18.5417 1.25V0.833333C18.5417 0.718282 18.4484 0.625 18.3333 0.625C18.2183 0.625 18.125 0.718282 18.125 0.833333V1.25C18.125 1.36505 18.2183 1.45833 18.3333 1.45833Z" fill="white"/>
<path d="M18.5417 2.08333C18.5417 1.96828 18.4484 1.875 18.3333 1.875C18.2183 1.875 18.125 1.96828 18.125 2.08333V2.5C18.125 2.61505 18.2183 2.70833 18.3333 2.70833C18.4484 2.70833 18.5417 2.61505 18.5417 2.5V2.08333Z" fill="white"/>
<path d="M12.9167 0.625H7.08333C4.21143 0.625 1.875 2.96143 1.875 5.83333V10.2313C2.13993 9.96047 2.50876 9.79167 2.91667 9.79167H3.54167V5.83333C3.54167 3.88041 5.13041 2.29167 7.08333 2.29167H12.9167C14.8696 2.29167 16.4583 3.88041 16.4583 5.83333V9.79167H17.0833C17.4912 9.79167 17.8601 9.96047 18.125 10.2313V5.83333C18.125 2.96143 15.7886 0.625 12.9167 0.625Z" fill="white"/>
<path d="M2.15902 2.15902C2.2404 2.07764 2.2404 1.9458 2.15902 1.86442L1.86442 1.56982C1.78304 1.48844 1.6512 1.48844 1.56982 1.56982C1.48844 1.6512 1.48844 1.78304 1.56982 1.86442L1.86442 2.15902C1.90511 2.19971 1.95841 2.22005 2.01172 2.22005C2.06502 2.22005 2.11833 2.19971 2.15902 2.15902Z" fill="white"/>
<path d="M0.980632 1.27523C1.02132 1.31592 1.07463 1.33626 1.12793 1.33626C1.18123 1.33626 1.23454 1.31592 1.27523 1.27523C1.35661 1.19385 1.35661 1.06201 1.27523 0.980632L0.980632 0.686035C0.899251 0.604655 0.767415 0.604655 0.686035 0.686035C0.604655 0.767415 0.604655 0.899251 0.686035 0.980632L0.980632 1.27523Z" fill="white"/>
<path d="M1.71712 1.33626C1.77043 1.33626 1.82373 1.31592 1.86442 1.27523L2.15902 0.980632C2.2404 0.899251 2.2404 0.767415 2.15902 0.686035C2.07764 0.604655 1.9458 0.604655 1.86442 0.686035L1.56982 0.980632C1.48844 1.06201 1.48844 1.19385 1.56982 1.27523C1.61051 1.31592 1.66382 1.33626 1.71712 1.33626Z" fill="white"/>
<path d="M0.833333 2.22005C0.886637 2.22005 0.939941 2.19971 0.980632 2.15902L1.27523 1.86442C1.35661 1.78304 1.35661 1.6512 1.27523 1.56982C1.19385 1.48844 1.06201 1.48844 0.980632 1.56982L0.686035 1.86442C0.604655 1.9458 0.604655 2.07764 0.686035 2.15902C0.726725 2.19971 0.780029 2.22005 0.833333 2.22005Z" fill="white"/>
<path d="M12.2917 14.3748H11.4583C11.3627 14.3748 11.2794 14.4399 11.2562 14.5325L10.8452 16.1764L9.78668 11.4129C9.76542 11.3168 9.6873 11.2447 9.5811 11.2498C9.48263 11.2508 9.3984 11.3207 9.37907 11.4172L8.78754 14.3748H7.70833C7.59328 14.3748 7.5 14.468 7.5 14.5831C7.5 14.6981 7.59328 14.7914 7.70833 14.7914H8.95833C9.05762 14.7914 9.14317 14.7213 9.1626 14.624L9.59401 12.4667L10.63 17.1283C10.6509 17.2226 10.7339 17.2901 10.8306 17.2914H10.8333C10.9289 17.2914 11.0123 17.2264 11.0355 17.1337L11.621 14.7914H12.2917C12.4067 14.7914 12.5 14.6981 12.5 14.5831C12.5 14.468 12.4067 14.3748 12.2917 14.3748Z" fill="white"/>
<path d="M13.75 9.7915C13.4054 9.7915 13.125 10.0719 13.125 10.4165V10.6248H15.2083C15.3234 10.6248 15.4167 10.7181 15.4167 10.8332C15.4167 10.9482 15.3234 11.0415 15.2083 11.0415H13.125V11.4582H15.2083C15.3234 11.4582 15.4167 11.5515 15.4167 11.6665C15.4167 11.7816 15.3234 11.8748 15.2083 11.8748H13.125V12.2915H15.2083C15.3234 12.2915 15.4167 12.3848 15.4167 12.4998C15.4167 12.6149 15.3234 12.7082 15.2083 12.7082H13.125V13.1248H15.2083C15.3234 13.1248 15.4167 13.2181 15.4167 13.3332C15.4167 13.4482 15.3234 13.5415 15.2083 13.5415H13.125V13.9582H15.2083C15.3234 13.9582 15.4167 14.0515 15.4167 14.1665C15.4167 14.2816 15.3234 14.3748 15.2083 14.3748H13.125V14.7915H15.2083C15.3234 14.7915 15.4167 14.8848 15.4167 14.9998C15.4167 15.1149 15.3234 15.2082 15.2083 15.2082H13.125V15.6248H15.2083C15.3234 15.6248 15.4167 15.7181 15.4167 15.8332C15.4167 15.9482 15.3234 16.0415 15.2083 16.0415H13.125V16.4582H15.2083C15.3234 16.4582 15.4167 16.5515 15.4167 16.6665C15.4167 16.7816 15.3234 16.8748 15.2083 16.8748H13.125V17.2915H15.2083C15.3234 17.2915 15.4167 17.3848 15.4167 17.4998C15.4167 17.6149 15.3234 17.7082 15.2083 17.7082H13.125V18.1248H15.2083C15.3234 18.1248 15.4167 18.2181 15.4167 18.3332C15.4167 18.4482 15.3234 18.5415 15.2083 18.5415H13.125V18.7498C13.125 19.0945 13.4054 19.3748 13.75 19.3748H15.4167C15.49 19.3748 15.5598 19.3612 15.625 19.3377V9.82861C15.5598 9.80519 15.49 9.7915 15.4167 9.7915H13.75Z" fill="white"/>
<path d="M17.0837 10.2085H16.042V18.9585H17.0837C17.658 18.9585 18.1253 18.4912 18.1253 17.9168V11.2502C18.1253 10.6758 17.658 10.2085 17.0837 10.2085Z" fill="white"/>
<path d="M1.875 11.2502V17.9168C1.875 18.4912 2.34233 18.9585 2.91667 18.9585H3.95833V10.2085H2.91667C2.34233 10.2085 1.875 10.6758 1.875 11.2502Z" fill="white"/>
<path d="M6.25 9.7915H4.58333C4.50999 9.7915 4.44019 9.80519 4.375 9.82861V19.3377C4.44019 19.3612 4.50999 19.3748 4.58333 19.3748H6.25C6.59465 19.3748 6.875 19.0945 6.875 18.7498V18.5415H4.79167C4.67662 18.5415 4.58333 18.4482 4.58333 18.3332C4.58333 18.2181 4.67662 18.1248 4.79167 18.1248H6.875V17.7082H4.79167C4.67662 17.7082 4.58333 17.6149 4.58333 17.4998C4.58333 17.3848 4.67662 17.2915 4.79167 17.2915H6.875V16.8748H4.79167C4.67662 16.8748 4.58333 16.7816 4.58333 16.6665C4.58333 16.5515 4.67662 16.4582 4.79167 16.4582H6.875V16.0415H4.79167C4.67662 16.0415 4.58333 15.9482 4.58333 15.8332C4.58333 15.7181 4.67662 15.6248 4.79167 15.6248H6.875V15.2082H4.79167C4.67662 15.2082 4.58333 15.1149 4.58333 14.9998C4.58333 14.8848 4.67662 14.7915 4.79167 14.7915H6.875V14.3748H4.79167C4.67662 14.3748 4.58333 14.2816 4.58333 14.1665C4.58333 14.0515 4.67662 13.9582 4.79167 13.9582H6.875V13.5415H4.79167C4.67662 13.5415 4.58333 13.4482 4.58333 13.3332C4.58333 13.2181 4.67662 13.1248 4.79167 13.1248H6.875V12.7082H4.79167C4.67662 12.7082 4.58333 12.6149 4.58333 12.4998C4.58333 12.3848 4.67662 12.2915 4.79167 12.2915H6.875V11.8748H4.79167C4.67662 11.8748 4.58333 11.7816 4.58333 11.6665C4.58333 11.5515 4.67662 11.4582 4.79167 11.4582H6.875V11.0415H4.79167C4.67662 11.0415 4.58333 10.9482 4.58333 10.8332C4.58333 10.7181 4.67662 10.6248 4.79167 10.6248H6.875V10.4165C6.875 10.0719 6.59465 9.7915 6.25 9.7915Z" fill="white"/>
<path d="M7.91699 6.25016C8.03204 6.25016 8.12533 6.15688 8.12533 6.04183C8.12533 5.92678 8.03204 5.8335 7.91699 5.8335H7.50033C7.38527 5.8335 7.29199 5.92678 7.29199 6.04183C7.29199 6.15688 7.38527 6.25016 7.50033 6.25016H7.91699Z" fill="white"/>
<path d="M6.66699 6.25016C6.78204 6.25016 6.87533 6.15688 6.87533 6.04183C6.87533 5.92678 6.78204 5.8335 6.66699 5.8335H6.25033C6.13527 5.8335 6.04199 5.92678 6.04199 6.04183C6.04199 6.15688 6.13527 6.25016 6.25033 6.25016H6.66699Z" fill="white"/>
<path d="M7.08333 5.83333C7.19838 5.83333 7.29167 5.74005 7.29167 5.625V5.20833C7.29167 5.09328 7.19838 5 7.08333 5C6.96828 5 6.875 5.09328 6.875 5.20833V5.625C6.875 5.74005 6.96828 5.83333 7.08333 5.83333Z" fill="white"/>
<path d="M7.08333 6.25C6.96828 6.25 6.875 6.34328 6.875 6.45833V6.875C6.875 6.99005 6.96828 7.08333 7.08333 7.08333C7.19838 7.08333 7.29167 6.99005 7.29167 6.875V6.45833C7.29167 6.34328 7.19838 6.25 7.08333 6.25Z" fill="white"/>
<path d="M13.4697 7.84505C13.523 7.84505 13.5763 7.82471 13.617 7.78402C13.6984 7.70264 13.6984 7.5708 13.617 7.48942L13.3224 7.19482C13.241 7.11344 13.1092 7.11344 13.0278 7.19482C12.9465 7.2762 12.9465 7.40804 13.0278 7.48942L13.3224 7.78402C13.3631 7.82471 13.4164 7.84505 13.4697 7.84505Z" fill="white"/>
<path d="M12.4386 6.31104C12.3573 6.22965 12.2254 6.22965 12.144 6.31104C12.0627 6.39242 12.0627 6.52425 12.144 6.60563L12.4386 6.90023C12.4793 6.94092 12.5326 6.96126 12.5859 6.96126C12.6392 6.96126 12.6925 6.94092 12.7332 6.90023C12.8146 6.81885 12.8146 6.68701 12.7332 6.60563L12.4386 6.31104Z" fill="white"/>
<path d="M13.1751 6.96126C13.2284 6.96126 13.2817 6.94092 13.3224 6.90023L13.617 6.60563C13.6984 6.52425 13.6984 6.39242 13.617 6.31104C13.5356 6.22965 13.4038 6.22965 13.3224 6.31104L13.0278 6.60563C12.9465 6.68701 12.9465 6.81885 13.0278 6.90023C13.0685 6.94092 13.1218 6.96126 13.1751 6.96126Z" fill="white"/>
<path d="M12.4386 7.19482L12.144 7.48942C12.0627 7.5708 12.0627 7.70264 12.144 7.78402C12.1847 7.82471 12.238 7.84505 12.2913 7.84505C12.3446 7.84505 12.3979 7.82471 12.4386 7.78402L12.7332 7.48942C12.8146 7.40804 12.8146 7.2762 12.7332 7.19482C12.6519 7.11344 12.52 7.11344 12.4386 7.19482Z" fill="white"/>
<path d="M8.02117 9.57237C8.18545 9.85537 8.5064 10.0018 8.88156 10.0018C9.16669 10.0018 9.48316 9.91712 9.78559 9.74347C10.1916 9.51032 10.4923 9.15326 10.59 8.78827C10.6204 8.67502 10.6293 8.5649 10.62 8.45982C10.6208 8.45211 10.6245 8.44534 10.6245 8.43742V5.48326L11.8703 5.23326C12.3558 5.13742 12.7079 4.70825 12.7079 4.21242V3.64576C12.7079 3.58326 12.6808 3.52492 12.6308 3.48534C12.5829 3.44575 12.5203 3.42908 12.4578 3.44158L10.3745 3.85825C10.2787 3.877 10.2079 3.96241 10.2079 4.06242V7.83704C9.83499 7.63177 9.27498 7.66608 8.75511 7.96471C8.34913 8.19786 8.04843 8.55492 7.95067 8.91991C7.88699 9.15774 7.9114 9.38337 8.02117 9.57237Z" fill="white"/>
</svg>
